<?xml version="1.0" encoding="UTF-8"?><svg xmlns="http://www.w3.org/2000/svg" width="1833.024" height="1951.652" viewBox="0 0 1833.024 1951.652"><g id="a"/><g id="b"><g id="c"><g><path d="M522.161,761c-.449-21.194,5.945-40.34,12.011-59.488,6.813-21.511,14.281-42.986,30.496-59.525,13.023-13.283,26.666-26.051,40.868-38.06,14.091-11.915,31.028-15.308,49.21-12.349,1.167,.19,2.325,.439,3.494,.622,.278,.043,.58-.074,2.714-.393,7.946-10.389,16.714-21.852,25.482-33.315,4.129-5.398,7.87-11.16,12.492-16.096,5.088-5.434,11.319-9.47,18.891-11.015,12.789-2.611,23.907,3.3,28.081,15.745,1.669,4.977,2.475,10.385,2.772,15.648,.473,8.403,3.421,15.233,9.209,21.461,5.406,5.816,10.284,12.297,14.429,19.076,9.538,15.6,20.94,29.295,35.705,40.291,13.895,10.348,22.094,24.485,25.017,42.904,1.864-2.25,3.157-3.587,4.195-5.099,5.698-8.298,11.012-16.881,17.047-24.923,23.385-31.162,55.184-45.767,93.667-45.771,20.705-.002,41.413,1.348,62.113,2.249,24.272,1.057,48.656,3.06,72.71-1.173,18.899-3.326,37.466-8.548,56.168-12.984,4.571-1.084,9.409-3.45,13.455,.441,4.529,4.356,1.862,9.493,.084,14.094-13.025,33.713-12.516,67.834-2.361,101.931,7.005,23.519,15.265,46.663,22.85,70.011,2.334,7.183,4.294,14.486,6.425,21.735,.612-.1,1.225-.201,1.837-.302-.967-9.491-1.659-19.02-2.978-28.461-1.334-9.547-.916-18.932,1.473-28.189,2.213-8.576,7.186-15.509,13.883-21.238,3.151-2.695,6.32-5.37,9.427-8.115,4.576-4.043,7.444-8.913,8.6-15.089,2.551-13.634,4.211-27.564,11.401-39.916,.643-1.105,.609-2.912,.27-4.235-5.002-19.567-.033-36.506,12.1-52.358,6.966-9.102,12.161-19.558,18.168-29.396,1.543-2.527,3.043-5.09,4.744-7.509,1.906-2.71,4.621-4.02,7.702-2.366,2.969,1.594,3.945,4.445,2.497,7.599-2.202,4.798-3.248,9.578-.499,14.459,1.153,2.046,2.325,4.227,3.997,5.811,6.426,6.086,13.057,11.955,19.65,17.939,.073-.162,.839-1.384,1.197-2.714,3.466-12.859,11.229-22.767,21.563-30.704,9.91-7.611,19.51-15.387,26.409-26.086,1.165-1.807,4.343-3.345,6.509-3.245,3.522,.162,4.247,3.556,4.482,6.663,.468,6.18,.993,12.356,1.369,18.541,.29,4.754,2.741,8.263,5.878,11.593,6.072,6.445,11.975,13.05,18.494,20.187,7.766-4.414,15.306-9.899,20.383-18.042,12.014-19.271,20.904-39.99,24.279-62.459,3.711-24.705,3.606-49.597-1.127-74.283-4.79-24.987-9.28-50.042-14.684-74.897-3.137-14.428-7.48-28.624-11.868-42.742-9.369-30.147-11.655-60.939-9.153-92.209,1.41-17.62,6.695-34.215,14.25-50.11,10.036-21.117,20.166-42.188,30.254-63.28,.255-.534,.446-1.101,.732-1.617,1.566-2.828,2.795-6.263,6.895-5.898,4.701,.419,5.182,4.454,5.679,7.878,.675,4.658,.76,9.401,1.212,15.698,2.567-2.582,4.424-4.507,6.342-6.371,13.778-13.391,24.045-29.188,32.149-46.514,2.314-4.947,3.421-10.83,9.787-12.974,1.31-.441,2.057-2.757,2.921-4.289,5.716-10.138,13.715-17.815,24.499-22.315,10.833-4.52,18.377-12.164,24.477-22.194,9.266-15.237,21.272-27.788,39.569-32.203,9.231-2.228,13.365-1.155,20.713,5.216,7.695-3.73,15.446-8.136,24.861-4.531,8.711,3.335,12.958,10.841,18.01,17.75,.895,.129,1.791,.455,2.631,.349,15.919-2.005,24.382,7.375,26.293,22.29,1.189,9.274,.003,18.865-.281,28.309-.079,2.642-.573,5.305-1.163,7.893-2.11,9.261,.1,17.01,5.697,24.926,4.107,5.81,6.692,13.339,7.876,20.448,3.326,19.987,3.178,40.031-1.185,60.031-3.415,15.654-11.248,29.208-18.846,42.906-2.356,4.249-3.867,8.322-3.937,13.291-.24,17.172-4.556,33.574-12.511,48.624-14.109,26.695-28.846,53.034-46.481,77.695-21.79,30.472-50.776,50.797-85.51,63.794-9.667,3.617-19.113,7.961-28.319,12.644-10.469,5.325-17.187,13.921-20.93,25.28-5.052,15.332-7.133,31.181-8.772,47.032-3.289,31.803-16.489,58.469-39.84,80.043-10.541,9.739-17.75,20.972-21.44,34.987-2.388,9.069-8.037,17.327-10.069,26.43-1.952,8.746-.749,18.148-1.598,27.2-2.141,22.831-14.956,38.752-33.916,50.247-10.37,6.287-21.073,12.026-31.615,18.031-1.24,.707-2.806,1.263-3.554,2.349-9.229,13.38-1.57,33.521,14.295,36.586,5.333,1.03,11.559,1.204,16.576-.536,25.982-9.013,47.514-24.41,61.009-48.77,5.811-10.489,8.743-22.565,13.065-33.888,2.739-7.176,5.049-14.599,8.592-21.367,5.259-10.045,12.743-18.398,23.035-24.142-12.437-14.104-15.12-30.792-15.134-48.085-.015-19.277,6.114-36.649,17.977-51.911,8.316-10.699,18.764-18.855,30.598-25.302,12.476-6.797,25.306-13.015,37.376-20.467,9.258-5.716,17.581-12.95,26.304-19.53,.94-.709,1.669-2.034,2.674-2.254,2.118-.462,4.894-1.233,6.395-.286,1.547,.976,2.776,3.936,2.572,5.862-.298,2.822-1.974,5.505-3.101,8.231-4.393,10.621-8.801,21.236-13.762,33.2,3.479-.384,5.361-.383,7.135-.821,15.273-3.772,30.213-8.447,43.79-16.683,.759-.46,1.525-.91,2.304-1.334,2.81-1.529,5.736-2.212,8.083,.538,2.556,2.995,1.568,6.089-.646,8.863-1.104,1.383-2.382,2.636-3.642,3.887-10.812,10.728-17.531,23.557-21.001,38.42-1.869,8.007-4.828,15.834-8.011,23.442-5.003,11.957-13.773,20.763-25.494,26.117-9.116,4.165-18.53,7.812-28.071,10.886-17.131,5.519-31.63,14.628-42.546,29.061-4.446,5.879-4.089,7.923,1.716,12.396,5.467,4.212,11.579,5.992,18.345,4.025,4.534-1.318,9.078-2.769,13.375-4.7,6.473-2.909,12.976-5.889,19.037-9.549,15.094-9.113,31.066-12.252,48.557-9.592,9.187,1.397,18.615,1.209,28.34,1.76,.762-2.447,1.495-4.619,2.116-6.823,7.416-26.305,22.349-47.568,43.844-64.146,21.124-16.292,45.044-21.408,71.255-16.666,15.265,2.761,29.875,7.382,43.731,14.321,15.392,7.709,31.593,11.606,48.853,10.966,2.943-.109,6.086-.366,8.789,.512,1.874,.609,4.168,2.916,4.405,4.71,.228,1.729-1.633,4.1-3.167,5.573-1.155,1.109-3.237,1.268-4.918,1.812-9.85,3.19-19.694,6.395-29.557,9.545-10.778,3.442-19.505,9.589-26.255,18.781-4.551,6.198-9.715,11.945-14.59,17.905-22.257,27.212-51.67,38.914-86.061,38.304-19.796-.351-39.544-2.858-59.342-3.805-18.878-.903-37.866-1.619-56.61,1.17-7.127,1.06-14,4.578-20.69,7.632-8.606,3.928-16.759,8.853-25.383,12.737-11.241,5.063-22.867,6.258-34.313,.515-6.046-3.033-10.832-1.243-15.354,2.861-7.183,6.52-12.195,14.491-15.283,23.621-2.99,8.843-5.692,17.784-8.432,26.404,5.541-4.729,11.023-10.056,17.14-14.512,22.739-16.565,48.475-22.417,76.311-21.244,16.208,.683,31.474,4.641,46.63,10.048,13.068,4.662,26.427,8.547,39.778,12.355,4.494,1.282,9.35,1.328,14.052,1.833,3.531,.379,7.223,.092,10.573,1.048,2.189,.624,5.135,2.72,5.461,4.561,.316,1.781-1.818,4.865-3.704,5.993-4.288,2.566-9.093,4.263-13.672,6.348-10.422,4.745-18.193,12.426-22.758,22.756-3.732,8.448-9.282,15.606-14.373,23.078-12.642,18.555-31.404,27.443-52.684,31.571-29.493,5.722-57.132-.246-82.994-14.851-7.963-4.497-15.369-10.017-22.851-15.321-7.203-5.106-14.112-10.628-21.308-15.745-1.255-.892-3.44-1.268-4.941-.884-5.952,1.521-12.303,2.533-17.566,5.436-6.671,3.679-12.395,9.057-18.588,13.622-5.708,4.208-11.306,8.609-17.292,12.388-9.231,5.829-19.341,6.766-28.657,1.031-11.384-7.009-21.252-4.696-31.272,2.281-19.929,13.876-39.903,27.687-59.906,41.456-10.178,7.006-17.044,15.619-18.675,28.647-1.5,11.973-5.224,15.163-16.561,16.024-14.869,1.129-27.107,7.607-38.635,16.324-11.552,8.735-23.625,16.816-34.827,25.97-9.082,7.421-17.212,16.009-25.763,24.079,.222,.605,.444,1.211,.665,1.816,3.315-.269,6.635-.483,9.943-.818,22.957-2.319,45.82-1.711,67.506,6.669,42.35,16.366,69.814,45.603,76.574,91.94,1.45,9.94,3.498,19.803,5.541,29.646,2.374,11.439,8.221,20.626,17.572,27.918,6.011,4.688,11.896,9.94,16.474,15.974,7.782,10.256,5.872,19.042-4.69,26.569-9.367,6.677-20.291,9.988-31.332,11.615-12.761,1.881-23.96,6.272-33.559,14.7-10.683,9.381-21.272,18.873-31.762,28.47-12.917,11.817-27.913,18.592-45.445,19.986-10.019,.797-19.993,2.19-29.975,3.417-2.012,.248-4.324,.449-5.89,1.542-8.424,5.88-16.656,12.035-24.954,18.095,.199,.663,.398,1.326,.597,1.989,2.423,.324,4.838,.818,7.271,.948,45.324,2.431,83.338,20.49,114.736,53.117,14.754,15.331,26.36,32.673,35.29,51.91,8.392,18.077,12.029,37.14,11.412,56.959-.368,11.827-1.277,23.649-2.327,35.439-2.183,24.501-.387,48.501,8.104,71.776,.811,2.223,1.547,4.482,2.16,6.766,5.226,19.483-6.401,36.032-26.669,36.908-6.622,.287-13.455-1.396-19.997-2.98-6.878-1.665-13.524-4.292-20.271-6.498-13.593-4.447-27.488-4.932-41.197-1.455-14.036,3.56-27.803,8.193-41.652,12.473-46.498,14.369-87.532,3.533-124.415-26.78-20.071-16.496-36.562-36.201-51.949-56.986-14.136-19.095-26.853-39.017-37.326-60.358-1.101-2.243-2.522-4.329-4.476-6.403,3.25,46.524-14.393,85.552-42.8,122.142,9.782,.721,18.523,1.005,27.166,2.078,16.138,2.005,32.22,4.463,48.323,6.75,1.17,.166,2.347,.388,3.475,.735,3.292,1.009,6.054,2.648,6.299,6.54,.253,4.019-2.51,5.805-5.722,6.926-2.784,.971-5.683,1.631-8.556,2.324-6.033,1.453-12.075,2.868-18.126,4.242-19.217,4.364-36.997,12.192-54.237,21.626-17.111,9.364-34.104,19.335-53.673,22.863-16.295,2.938-32.619,6.138-49.075,7.667-28.163,2.617-54.61,9.92-79.141,24.176-15.101,8.776-30.414,17.193-45.755,25.544-21.385,11.641-44.471,17.511-68.579,20.032-16.559,1.731-33.065,2.338-49.638,.36-3.345-.399-6.779-.058-10.359,.62,13.142,7.291,24.973,16.747,39.702,20.723,1.425,.385,3.001,.652,4.174,1.459,18.186,12.504,37.828,22.966,53.562,38.906,10.089,10.22,18.777,21.254,23.868,34.851,.596,1.59,1.579,3.182,2.777,4.379,22.832,22.814,45.522,45.777,68.716,68.218,7.84,7.586,17.086,13.703,25.492,20.728,3.832,3.202,7.751,6.57,10.627,10.582,4.511,6.293,3.083,13.596-3.385,17.822-3.622,2.367-7.939,4.167-12.183,5.001-18.894,3.71-36.479,.193-52.488-10.675-3.43-2.329-6.847-4.678-10.292-6.985-2.4-1.608-4.489-3.741-8.022-2.278-1.095,.454-3.779-.677-4.447-1.829-3.214-5.544-8.651-5.766-13.888-6.202-18.238-1.517-36.01,1.382-53.532,6.179-21.993,6.021-44.042,12.196-66.812,13.971-18.54,1.445-37.241,1.495-55.847,1.091-7.187-.156-14.351-3.116-21.45-5.071-8.635-2.379-16.877-7.799-26.308-2.952-34.284-1.143-68.758-1.394-100.677-16.555-7.423-3.526-14.59-7.858-21.223-12.71-8.112-5.934-15.642-12.686-23.234-19.302-10.413-9.074-21.871-16.29-35.296-19.844-14.709-3.894-26.022-12.355-34.873-24.503-5.582-7.661-11.392-15.155-16.968-22.82-13.519-18.584-31.626-30.074-54.06-34.512-5.413-1.071-11.284-1.476-16.696-.62-25.404,4.019-50.727,8.548-76.056,13.028-1.922,.34-3.583,2.002-5.508,2.518-1.84,.493-4.468,1.08-5.644,.18-1.204-.921-1.89-3.855-1.386-5.463,4.125-13.138,10.468-24.564,24.695-29.244,7.591-2.497,15.106-5.252,22.777-7.471,6.951-2.011,12.497-5.168,17.084-11.282,11.857-15.803,21.594-32.56,26.819-51.689,4.378-16.028,4.5-32.137,.182-48.255-3.624-13.524-5.065-27.286-4.974-41.314,.101-15.659,4.51-29.562,13.704-42.311,7.435-10.31,14.219-21.119,20.817-31.996,10.192-16.804,16.993-35.12,23.098-53.728,8.47-25.817,19.937-50.084,38.185-70.598,19.161-21.54,42.676-35.375,71.451-39.771,5.254-.803,10.442-2.089,15.619-3.329,7.653-1.835,14.525-5.364,19.912-11.094,9.801-10.425,18.201-21.821,22.587-35.721,.8-2.536,1.553-5.14,2.768-7.484,4.456-8.598,14.347-9.813,20.371-2.244,2.714,3.41,5.125,7.449,6.346,11.594,5.028,17.073,9.474,34.171,4.562,52.309-2.606,9.622-.851,19.468,2.248,28.88,2.472,7.506,3.219,15.198,1.632,22.789-1.512,7.235,.311,13.35,3.572,19.557,5.092,9.692,9.824,19.572,14.844,29.302,10.91,21.151,9.136,42.908,3.249,64.876-.678,2.528-1.583,4.996-2.697,8.473,10.011-2.717,19.157-5.711,28.527-7.599,9.534-1.921,19.288-2.752,29.995-4.202,1.691-33.245,15.366-62.511,32.441-90.749-5.006-12.964-8.758-26.271-9.905-40.276-2.505-30.608,6.123-58.02,23.773-82.701,12.981-18.151,27.545-34.854,46.645-47.065,2.58-1.65,4.613-4.514,6.26-7.207,10.239-16.738,17.699-34.802,24.663-53.066,4.441-11.647,4.817-23.584,2.241-35.809-1.239-5.878-4.279-8.704-10.047-9.313-4.413-.466-8.775-1.411-13.188-1.887-10.139-1.093-18.688,2.496-25.7,9.614-15.264,15.495-33.039,27.779-50.454,40.619-20.18,14.879-42.653,23.063-67.309,25.14-24.516,2.065-49.011,2.307-73.421-2.541-14.908-2.962-28.263-8.662-40.052-18.032-9.616-7.642-20.146-13.442-31.738-17.435-13.874-4.779-24.824-13.139-33.178-25.445-14.364-21.158-32.478-38.33-55.798-49.571-13.193-6.359-27.514-8.902-41.421-12.906-9.605-2.765-19.171-6.076-28.196-10.328-8.711-4.104-15.193-11.049-19.217-20.149-1.109-2.507-3.35-4.822-5.628-6.443-5.595-3.981-7.975-9.339-8.05-15.95-.135-11.825,4.816-21.273,14.082-28.304,4.212-3.196,8.912-5.874,13.687-8.172,6.647-3.2,12.005-7.635,15.47-14.119,11.529-21.569,30.491-32.26,53.616-37.005,14.556-2.987,26.721-11.07,38.986-18.783,9.999-6.289,19.246-13.776,30.994-16.985,2.657-.726,4.821-3.312,7.173-5.092,21.868-16.548,46.255-26.088,73.897-26.526,11.156-.177,21.69,2.786,31.973,6.734,16.974,6.516,32.603,15.461,47.066,26.462,1.609,1.224,3.219,2.446,5.904,4.486-.161-2.781-.021-4.384-.375-5.869-6.566-27.524-9.304-55.42-8.585-83.702,.499-19.614,2.365-38.991,8.197-57.838,1.302-4.209,2.76-8.442-.359-12.673-.791-1.073-.826-2.826-.903-4.283-1.238-23.465-.162-46.743,5.441-69.688,5.457-22.35,19.219-39.126,36.214-53.541,14.893-12.632,30.124-24.879,45.494-36.926,3.841-3.01,8.579-5.487,13.289-6.636,7.488-1.827,12.844,4.404,10.32,11.687-1.425,4.113-3.793,8.032-6.349,11.599-15.195,21.197-15.37,44.173-7.266,67.578,7.844,22.652,22.226,40.965,40.883,55.93,.399,.32,1.061,.314,3.05,.852Zm953.848-111.927c5.071-1.687,8.285-5.445,10.781-9.992-6.223,.472-8.812,4.883-10.616,10.142-2.726,1.149-5.014,2.636-3.884,6.659,1.239-2.27,2.479-4.539,3.719-6.809Zm-533.353,860.735c-1.158-2.048-2.316-4.095-3.473-6.143-.495,.363-.99,.726-1.485,1.089,1.708,1.632,3.416,3.265,5.124,4.897,.518,1.332,.789,2.839,1.591,3.97,14.098,19.891,30.123,37.998,48.744,53.854,16.591,14.127,35.424,23.511,56.522,28.445,11.323,2.648,22.908,4.065,34.339,1.371,15.517-3.656,31.098-7.354,46.198-12.394,26.236-8.757,52.01-10.508,77.913,.846,4.845,2.123,10.07,3.474,15.221,4.783,9.018,2.292,17.02,.125,23.683-6.419,2.299-2.258,4.412-4.774,2.686-8.51-15.444,9.379-27.874,9.664-44.279,.696-5.173-2.828-9.91-6.45-14.884-9.648-5.713-3.673-11.35-7.488-17.238-10.858-6.43-3.68-13.471-4.82-20.529-2.216-8.266,3.049-16.702,5.963-24.4,10.155-13.833,7.532-27.783,14.451-43.31,17.777-23.878,5.114-46.861,4.847-68.441-8.872-25.147-15.987-48.266-34.235-67.685-56.973-1.848-2.164-4.186-3.908-6.296-5.848Zm-145.507-598.472c1.575-3.744,2.746-6.392,3.809-9.082,3.371-8.532,6.234-17.302,10.161-25.568,5.324-11.203,11.267-22.129,17.354-32.944,1.71-3.038,3.558-7.007,9.873-6.615-1.32,3.674-2.02,7.01-3.615,9.841-12.126,21.522-20.368,44.651-28.554,67.823-1.367,3.869-.998,7.073,.503,10.934,2.217,5.701,3.659,11.822,4.527,17.894,.724,5.062,.148,10.309,.148,15.475,2.516-1.723,3.819-3.595,4.786-5.628,7.757-16.304,14.879-32.939,23.276-48.905,21.885-41.61,49.419-79.36,80.373-114.649,3.088-3.52,6.922-6.425,10.629-9.336,1.033-.811,2.853-.62,4.312-.889,.401,.515,.802,1.03,1.203,1.544-24.417,30.844-48.907,61.626-69.699,95.077-15.853,25.506-50.529,98.247-50.408,106.556,13.358-5.961,25.795-13.353,37.351-22.211,1.609-1.233,3.096-2.747,4.286-4.387,21.392-29.474,42.812-58.929,64.038-88.522,8.798-12.266,17.081-24.902,25.789-37.235,1.521-2.154,2.603-5.691,7.331-4.446,0,1.526,.488,3.372-.098,4.767-1.368,3.255-3.012,6.453-4.967,9.394-13.767,20.713-27.668,41.337-41.441,62.046-1.572,2.364-4.143,4.452-3.793,9.098,3.113-3.621,5.292-6.417,7.746-8.946,3.701-3.814,7.264-7.878,11.476-11.054,8.241-6.213,17.499-4.663,23.005,4.01,2.335,3.678,4.955,6.316,8.746,8.265,7.682,3.95,12.005,10.345,12.782,19.009,.396,4.416,1.093,8.852,.972,13.26-.44,15.978-1.178,31.947-1.775,47.92-.065,1.735-.521,3.764,.181,5.169,4.284,8.574,8.85,17.006,13.461,25.748,18.976-13.107,33.687-30.274,52.949-42.052-1.178,3.719-2.568,7.329-4.978,10.028-6.105,6.836-12.442,13.503-19.108,19.791-7.319,6.903-15.071,13.353-22.719,19.901-2.602,2.227-5.071,4.244-1.878,7.745,.641-.086,1.315,.007,1.771-.265,24.803-14.828,51.947-24.149,78.927-33.926,4.831-1.751,9.658-4.666,13.344-8.227,19.808-19.14,39.289-38.62,58.82-58.047,37.584-37.384,41.485-81.541,25.994-129.72-4.053,10.095-2.49,22.263-11.182,30.766-4.241-3.384-3.262-6.687-2.703-10.303,1.849-11.955,3.727-23.937,4.698-35.981,.49-6.078-.129-12.528-1.683-18.432-3.613-13.722-8.065-27.224-12.235-40.797-8.279-26.941-11.765-54.32-7.704-82.413,.491-3.398,.893-6.809,1.336-10.213-7.842,15.051-12.482,31.737-26.034,43.299,3.592-20.966,16.355-38.775,20.976-61.493-10.462,4.517-19.625,7.812-28.166,12.292-19.779,10.376-37.34,23.951-53.725,39.072-8.27,7.632-16.499,15.31-24.857,22.845-2.211,1.993-4.153,4.878-9.359,4.354,1.565-3.273,2.408-6.039,4.037-8.219,2.825-3.782,5.881-7.466,9.286-10.726,16.696-15.981,33.699-31.618,52.833-44.732,1.55-1.062,2.922-2.383,5.692-4.669-13.272,0-24.745-.543-36.138,.175-8.773,.554-17.849,1.517-26.088,4.344-26.922,9.237-53.134,20.133-75.658,38.258-3.745,3.014-8.243,5.091-12.393,7.601-.58-.582-1.161-1.165-1.741-1.747,1.414-2.287,2.46-4.945,4.318-6.783,3.776-3.735,7.877-7.17,12.044-10.476,15.493-12.291,33.575-19.803,51.462-27.669,2.223-.978,4.359-2.154,8.4-4.169-3.591-.727-4.954-1.207-6.331-1.25-20.41-.647-40.838-2.059-61.229-1.642-29.185,.597-54.539,11.44-73.4,34.088-11.702,14.052-21.562,29.643-32.101,44.647-.883,1.257-.891,3.307-.876,4.984,.065,7.104,.273,14.206,.463,21.308,.877,32.751-9.79,61.581-29.479,87.417-6.768,8.881-14.67,16.447-25.088,20.622-8.498,3.406-13.796,8.206-13.073,18.186,.294,4.05-.956,8.206-1.457,12.32-2.081,17.109-5.139,33.956-13.049,49.531-.441,.868-.643,1.858-1.605,4.724,7.006-3.548,12.318-5.976,17.373-8.855,8.969-5.108,17.783-6.325,27.549,1.093Zm-195.899,291.826c-.428,1.856-.821,2.652-.757,3.41,2.415,28.143-4.967,53.345-22.625,75.453-7.577,9.487-15.31,18.849-22.841,28.372-9.427,11.919-14.755,25.541-16.303,40.637-.483,4.709-.653,9.453-1.258,14.144-.225,1.747-1.284,3.386-2.304,5.923-4.771-5.541-5.11-11.128-4.841-16.654,.899-18.482,6.393-35.413,17.661-50.299,8.933-11.802,17.999-23.509,26.656-35.511,11.172-15.489,14.74-33.352,15.139-52.033,.037-1.753-.852-3.525-1.612-6.441-1.65,4.95-2.928,8.573-4.068,12.238-5.1,16.398-14.431,29.676-28.658,39.476-9.75,6.716-19.629,13.29-28.954,20.564-9.066,7.072-17.594,14.849-26.141,22.557-2.128,1.919-4.026,4.548-4.995,7.225-8.76,24.22-13.474,49.112-10.324,74.923,3.031,24.843,12.984,47.313,25.902,68.383,11.07,18.055,27.365,29.812,47.508,36.684,16.484,5.623,33.507,7.109,50.612,8.654,15.149,1.369,30.067,3.862,42.563,13.453,12.025,9.23,22.882,19.662,31.698,32.141,4.777,6.762,9.767,13.427,15.228,19.637,6.796,7.729,14.753,14.11,25.111,17.967-.12-1.529-.037-2.405-.271-3.186-5.611-18.694-11.156-37.408-16.922-56.055-6.288-20.336-13.225-40.502-14.971-61.928-.073-.892,.105-1.804,.167-2.707,4.454,7.396,7.516,14.99,10.025,22.762,9.269,28.709,18.324,57.487,27.52,86.219,6.782,21.19,10.875,23.655,32.818,19.853,3.487-.604,7.013-1.298,10.337-2.471,14.775-5.213,29.426-10.778,44.23-15.906,17.814-6.17,29.717-20.04,42.862-32.316,.833-.778,1.315-1.957,1.88-2.994,16.113-29.595,22.68-61.146,16.501-94.35-5.085-27.326-12.144-54.262-23.862-79.739-5.24-11.392-11.187-22.257-20.002-31.251-17.819-18.183-35.73-36.279-53.769-54.244-4.251-4.234-9.16-7.808-14.919-12.655,.822,2.169,.895,2.767,1.22,3.152,2.291,2.711,4.564,5.443,6.972,8.05,29.511,31.951,47.163,69.898,56.477,112.008,1.548,6.999,1.835,14.156-.408,21.268-1.301-1.121-1.998-2.3-2.362-3.574-2.355-8.245-4.625-16.515-6.947-24.77-7.188-25.551-17.116-50.021-33.219-71.205-13.769-18.113-29.136-35.017-43.917-52.353-2.286-2.681-4.981-5.184-7.936-7.062-1.982-1.26-5.21-2.408-7.103-1.655-12.021,4.787-24.64,5.527-38.544,6.017,1.425,3.668,2.608,6.562,3.679,9.496,5.272,14.439,10.599,28.858,15.708,43.355,1.323,3.753,1.958,7.761,.286,12.351-4.883-2.404-5.908-6.528-7.462-10.176-6.955-16.33-14.008-32.621-20.645-49.08-2.316-5.744-6.136-8.788-11.773-10.947-9.37-3.589-18.431-7.984-27.62-12.046-2.526-1.116-5.041-2.256-7.923-3.548,0,1.75-.208,2.661,.03,3.435,10.017,32.505,20.072,64.998,30.126,97.491,2.756,8.907,4.511,17.947,4.408,28.078-5.05-2.102-5.717-6.046-6.904-9.553-7.016-20.734-13.962-41.493-20.978-62.227-7.107-21.004-14.347-41.963-21.371-62.995-3.234-9.685-11.281-15.359-17.817-23.444ZM206.918,1739.275c3.645,1.355,5.473,2.291,7.413,2.716,15.175,3.324,29.033,10.056,42.998,16.505,18.869,8.713,34.032,22.429,48.826,36.569,3.028,2.894,5.919,6.352,4.796,12.629-4.179-2.195-7.72-3.605-10.737-5.751-3.846-2.735-7.406-5.919-10.85-9.163-23.233-21.882-51.124-34.924-81.605-42.974-7.419-1.96-15.567-2.038-22.377-5.165-6.328-2.906-11.854-2.267-17.926-1.17-5.527,.999-11.074,1.894-16.614,2.822-32.395,5.427-64.738,11.115-96.16,20.975-9.028,2.833-18.005,5.864-26.874,9.156-4.717,1.751-9.347,4.05-11.395,9.514,17.785-3.651,34.778-7.386,51.873-10.567,12.515-2.329,25.193-4.356,37.942-1.959,25.875,4.864,46.73,17.878,62.38,39.136,5.969,8.108,12.046,16.137,18.045,24.224,6.544,8.821,14.718,15.23,25.497,18.235,18.072,5.038,33.199,14.993,47.073,27.507,12.271,11.068,24.659,22.165,40.625,28.183,24.155,9.106,49.095,13.108,74.82,12.587,2.154-.043,4.294-.795,7.001-1.328-1.894-4.404-3.212-8.016-4.951-11.413-6.066-11.851-12.334-23.598-18.407-35.445-2.586-5.045-5.987-9.908-5.299-18.096,3.992,4.172,7.406,6.708,9.458,10.075,6.616,10.857,12.878,21.939,18.984,33.094,3.825,6.989,7.123,14.266,9.761,19.6,11.608,2.959,21.718,4.974,31.439,8.173,9.695,3.19,19.405,5.022,29.592,4.991,21.653-.066,43.236-.9,64.486-5.473,13.101-2.819,26.133-5.964,39.587-9.052-4.316-7.867-10.364-13.68-8.937-23.293,9.731,4.026,11.702,13.565,17.276,20.471,18.86-4.254,37.955-6.739,58.123-4.616-1.258-3.789-1.854-6.402-2.96-8.777-4.619-9.911-10.343-19.428-13.829-29.712-3.198-9.434-9.861-14.19-17.785-18.235-10.01-5.109-20.183-9.899-30.207-14.981-30.088-15.254-60.132-30.594-90.214-45.862-2.505-1.272-5.161-2.246-7.747-3.358,.24,2.457,1.194,3.778,2.346,4.894,7.658,7.416,15.807,14.381,22.949,22.261,14.11,15.57,27.731,31.586,41.4,47.55,2.51,2.931,6.014,6.195,1.303,11.464-2.383-1.606-5.022-2.861-6.967-4.807-3.758-3.76-7.114-7.92-10.655-11.899-12.986-14.594-25.536-29.611-39.111-43.634-10.48-10.826-22.64-20.012-33.314-30.667-7.58-7.566-16.595-11.97-26.096-16.213-22.761-10.165-46.569-17.234-70.237-24.77-6.567-2.091-12.959-4.734-19.431-7.123,.155-.78,.31-1.56,.465-2.34,5.703,.361,11.566,.005,17.074,1.236,10.339,2.312,20.419,5.837,31.262,4.924,1.135-.096,2.325,.372,3.482,.617,16.877,3.571,33.921,5.186,51.178,4.536,4.436-.167,8.913-.334,13.316,.081,2.613,.246,5.12,1.627,8.783,2.877-5.8,8.029-13.124,5.838-19.408,6.269-6.818,.469-13.692,.106-20.542,.106,3.263,3.057,6.689,4.634,10.194,6.007,30.604,11.987,60.656,25.15,89.783,40.461,22.26,11.701,44.652,23.221,67.481,33.748,19.357,8.926,36.277,20.936,52.164,34.916,17.556,15.451,35.559,30.4,53.548,45.349,7.022,5.835,15.171,9.823,24.672,13.3-.883-1.572-1.039-2.179-1.43-2.495-3.219-2.603-6.469-5.168-9.733-7.715-26.716-20.847-50.682-44.656-73.085-69.928-11.007-12.417-22.574-23.33-37.963-29.883-3.073-1.308-5.734-3.584-9.09-5.737,7.105-6.653,12.988,.158,20.014-.477-3.065-3.913-5.299-7.779-8.46-10.611-9.911-8.88-19.534-18.298-30.447-25.792-16.086-11.046-32.975-21.128-53.869-19.786-2.257,.145-4.646-.795-6.875-1.532-1.678-.555-3.196-1.591-5.939-3.01,4.803-1.906,8.187-3.248,12.374-4.91-2.132-1.278-3.326-2.139-4.635-2.756-14.798-6.979-26.377-17.153-35.594-31.007-6.626-9.961-14.949-19.631-24.562-26.612-30.402-22.082-64.202-35.134-102.649-33.343-5.068,.236-8.761,1.955-12.68,5.089-5.965,4.771-12.603,8.759-19.215,12.636-2.942,1.725-6.553,3.057-10.449-1.099,3.601-3.543,7.147-7.032,10.376-10.209-13.4-1.134-26.621-1.878-39.738-3.473-11.751-1.429-22.435,.854-32.055,7.447-15.155,10.386-29.816,21.418-42.58,34.771-13.368,13.984-28.114,26.267-44.977,35.894-.736,.42-1.223,1.276-2.757,2.937,11.353-1.821,21.167-3.023,30.66-6.989,26.755-11.178,54.051-21.15,77.715-38.546,2.61-1.919,5.499-3.486,8.357-5.036,3.216-1.744,6.563-2.746,10.311-.262,.151,4.771-3.285,7.275-6.66,9.587-14.657,10.037-29.295,20.111-46.099,26.437-4.615,1.738-9.063,3.921-15.259,6.631,24.953-.06,47.879-6.149,70.925-.022-19.868,6.047-40.62,6.441-62.693,9.884ZM735.71,855.839c2.213-1.536,3.095-1.876,3.569-2.517,10.113-13.698,23.34-23.297,38.727-30.356,4.485-2.057,8.97-5.025,12.238-8.667,15.23-16.972,27.147-35.937,31.4-58.758,3.994-21.429,3.696-42.919,.697-64.538-2.373-17.103-9.628-30.803-23.586-41.075-14.048-10.338-24.674-23.666-33.713-38.528-4.737-7.788-10.411-15.119-16.427-21.986-6.157-7.028-9.599-14.768-10.055-24.007-.189-3.84-.239-7.758-1.068-11.481-2.744-12.323-12.548-16.589-23.567-10.493-7.217,3.993-12.035,10.297-16.745,16.852-6.73,9.367-13.321,18.926-20.948,27.537-12.174,13.746-21.414,28.913-27.185,46.372-2.777,8.402-6.582,16.474-10.129,24.605-1.239,2.84-2.538,5.961-7.267,7.152-1.359-12.376,5.19-22.064,8.494-32.407,3.459-10.83,8.028-21.305,12.524-33.01-5.166,0-9.818-.325-14.411,.06-14.676,1.231-26.095,8.486-35.852,19.228-5.943,6.543-12.237,12.958-19.231,18.309-10.098,7.726-18.513,16.716-24.198,27.973-13.962,27.652-23.982,56.623-28.02,87.485-.65,4.97-3.071,10.384-1.792,14.747,1.38,4.706,6.248,8.343,9.407,12.586,3.434,4.614,6.652,9.389,10.519,14.882,1.593-11.513,2.868-21.741,4.455-31.92,1.541-9.885,3.057-19.825,8.245-30.736,3.74,8.65,2.071,15.408,1.535,22.034-1.288,15.931-2.705,31.853-4.225,47.764-1.062,11.112,.686,21.768,4.277,32.261,9.831,28.727,14.979,58.546,18.128,88.537,3.18,30.295,4.09,60.829,5.938,91.262,1.154,19.004,6.697,36.602,16.739,52.761,.928,1.493,2.427,2.632,3.661,3.935-.57-9.613-1.994-18.64-3.936-27.554-8.915-40.927-12.967-82.474-14.46-124.194-1.704-47.645-2.712-95.381,5.176-142.712,1.894-11.365,4.338-22.645,6.846-33.894,.693-3.11,1.502-6.684,6.164-9.01-3.071,36.996-7.73,72.748-8.538,108.586-.805,35.747,.379,71.606,3.189,107.405,2.827,36.014,8.392,71.442,16.223,106.646,.658-2.05,.978-4.069,.921-6.077-1.42-49.306,2.893-98.222,10.305-146.894,4.55-29.877,11.28-59.273,21.429-87.806,.413-1.161,1.124-2.217,1.696-3.321,1.335,1.695,1.722,3.095,1.533,4.412-1.765,12.272-2.841,24.711-5.616,36.757-7.528,32.683-12.051,65.779-15.189,99.106-3.587,38.092-4.611,76.259-3.038,114.489,.101,2.452,.541,4.891,.985,8.738,6.958-7.36,9.958-13.636,7.123-22.684-2.252-7.19-3.993-15.31-2.976-22.601,2.404-17.223,8.888-33.188,21.403-45.87,3.514-3.56,5.414-7.059,6.046-12.114,2.939-23.486,5.983-46.973,9.801-70.327,1.851-11.325,5.375-22.388,8.393-33.502,.756-2.785,1.467-6.155,6.894-7.623-5.879,37.357-13.161,73.334-15.228,111.925,14.439-9.723,27.378-18.436,39.586-26.656,0-9.778-.319-18.334,.097-26.855,.36-7.376,1.459-14.723,2.399-22.061,2.534-19.783,8.303-38.741,15.114-57.39,2.438-6.675,6.138-12.67,14.533-17.891-3.221,11.835-5.917,21.742-9.011,33.109Zm-361.025,225.154c20.809-2.1,39.013,5.253,57.32,10.673,18.548,5.491,36.649,12.493,54.946,18.833-3.363-4.27-7.126-8.072-11.533-10.849-24.196-15.245-50.589-25.675-77.701-34.309-16.335-5.202-32.938-9.555-49.343-14.549-4.26-1.297-9.162-1.933-13.296-8.07,8.086,.975,14.528,1.149,20.671,2.593,32.871,7.727,65.216,17.129,95.894,31.564,2.174,1.023,4.524,1.674,8.127,2.983-11.995-14.605-22.874-27.857-33.768-41.098-.559-.679-1.148-1.416-1.885-1.853-9.407-5.571-18.561-11.658-28.324-16.521-32.991-16.431-68.194-24.901-104.789-28.172-5.436-.486-10.77-2.108-16.151-3.205,.03-.67,.061-1.34,.091-2.011,2.453-.584,4.892-1.585,7.362-1.671,6.501-.225,13.075-.616,19.516,.056,34.078,3.555,66.937,11.797,98.063,26.409,2.826,1.327,5.749,2.445,10.021,4.247-2.763-7.24-5.533-12.269-10.85-16.045-16.765-11.907-35.361-20.345-53.775-29.169-2.97-1.423-5.649-3.456-8.462-5.207,.215-.686,.43-1.372,.646-2.059,3.072,0,6.271-.55,9.185,.127,4.574,1.062,9.106,2.62,13.39,4.556,11.502,5.197,22.863,10.705,35.078,16.466-2.697-8.97-5.145-17.394-7.832-25.741-.397-1.234-1.768-2.339-2.946-3.109-9.404-6.152-18.706-12.485-28.355-18.232-15.308-9.118-31.199-17.245-49.085-19.753-22.025-3.089-42.112,3.679-61.316,13.74-2.271,1.19-4.304,2.833-6.491,4.296,2.852,1.771,5.158,3.204,8.171,5.075-3.495,4.061-7.26,5.025-10.955,4.965-15.604-.256-28.45,6.122-40.86,14.954-15.954,11.354-32.75,21.347-52.662,24.536-3.743,.6-7.455,2.013-10.914,3.625-6.982,3.253-13.911,6.722-18.615,13.339,1.866-.089,3.483-.615,5.018-1.321,31.982-14.717,65.952-18.106,100.582-17.506,5.222,.091,10.458,1.068,15.179,7.083-3.63,.668-5.987,1.382-8.372,1.495-15.349,.73-30.742,.864-46.05,2.074-24.806,1.96-48.29,9.029-69.949,21.282-13.335,7.544-24.839,17.948-38.495,25.204-7.058,3.75-10.703,10.927-11.142,19.206-.376,7.094,1.925,10.002,8.954,10.44,15.313,.954,30.636,1.911,45.97,2.282,11.535,.279,23.091-.466,34.639-.526,4.866-.025,9.976-.925,15.211,2.363-7.458,4.88-15.295,6.186-23.125,6.507-20.703,.848-41.427,1.187-62.142,1.741-1.868,.05-3.733,.197-6.784,.364,5.169,8.079,11.216,13.196,18.809,15.908,9.439,3.371,19.029,6.726,28.839,8.58,40.341,7.626,71.267,29.454,94.661,62.353,8.102,11.393,18.006,19.244,31.129,23.663,11.278,3.797,21.658,9.356,31.092,16.8,11.057,8.725,23.441,14.494,37.528,17.195,23.853,4.574,47.718,4.035,71.669,2.009,23.617-1.998,44.888-10.165,63.519-24.918,19.867-15.733,39.684-31.531,59.522-47.3-11.97-.912-22.851,1.603-33.033,6.165-13.486,6.042-26.853,12.468-39.774,19.627-19.394,10.746-39.95,17.875-61.665,21.727-5.475,.971-11.182,.798-16.785,.828-3.575,.019-6.929-.984-9.507-5.202,3.372-.72,6.159-1.685,8.995-1.861,20.682-1.284,40.212-7.014,58.754-15.88,13.068-6.248,25.639-13.536,38.431-20.361,18.206-9.714,37.257-16.599,58.109-17.654,6.963-.352,13.908-1.039,22.977-1.735-3.182-1.62-4.571-2.447-6.049-3.06-9.019-3.739-18.127-7.269-27.077-11.163-38.566-16.778-77.631-32.075-118.834-41.282-3.159-.706-7.086-1.004-9.374-6.539Zm533.566,32.086c.892,.303,1.783,.606,2.675,.908-.734,4.17-.976,8.511-2.347,12.46-1.239,3.568-3.505,6.849-5.674,10.012-17.534,25.559-32.195,53.211-55.764,75.579,2.922,2.313,5.225,4.429,7.811,6.111,3.465,2.254,7.301,3.95,10.709,6.279,7.756,5.301,16.204,6.673,25.389,5.632,18.482-2.094,33.879-9.976,46.284-23.809,13.304-14.836,24.987-30.822,34.36-48.435,6.477-12.171,10.619-25.129,11.508-38.901,2.199-34.059-2.707-67.319-12.027-100.01-1.478-5.186-3.76-10.062-7.152-15.848-.927,2.578-1.394,3.61-1.673,4.69-6.183,23.959-16.907,46.069-27.835,68.08-2.169,4.368-4.705,8.719-10.027,11.077-2.181-5.853-.015-10.523,1.757-15.02,4.341-11.013,8.907-21.943,13.613-32.806,9.721-22.435,16.84-45.538,17.873-70.143,.596-14.195,.8-28.408,.983-42.616,.091-7.02-2.845-12.48-9.095-16.17-4.024-2.375-7.853-5.123-11.572-7.963-4.401-3.361-5.661-3.715-9.896,.327-4.486,4.281-8.512,9.055-12.613,13.724-18.392,20.933-36.705,41.934-60.318,57.386-27.136,17.757-55.472,32.981-87.373,40.293-14.401,3.301-29.005,5.706-43.49,8.652-31.406,6.386-51.64,25.066-60.231,55.883-4.523,16.223-9.397,32.436-9.821,49.525-.08,3.217-.99,6.433-1.686,9.612-3.472,15.85-11.806,27.658-27.831,32.835-8.586,2.774-17.25,5.307-26.423,8.115,8.876,15.012,20.118,27.847,33.806,38.202,12.087,9.143,25.861,15.634,40.315,20.236,5.178,1.649,11.362,3.22,16.322,1.917,17.564-4.617,33.969-11.927,47.815-24.318,12.644-11.316,23.985-23.712,34.132-37.283,3.825-5.116,7.21-10.741,14.348-15.396-4.209,17.8-14.717,29.834-25.527,41.297-10.714,11.361-22.572,21.643-33.846,32.32,.762-.312,1.803-.694,2.808-1.154,20.787-9.508,38.09-23.83,54.233-39.651,28.553-27.983,52.217-59.667,71.272-94.821,3.039-5.606,6.681-10.886,10.044-16.317,.025,9.798-2.598,18.46-6.922,26.538-21.997,41.1-49.303,78.062-84.876,108.561-1.407,1.206-2.53,2.743-4.957,5.415,11.48-.542,21.334-.155,30.902-1.628,22.887-3.523,41.94-14.851,56.405-32.65,18.485-22.746,35.721-46.482,50.193-72.084,.939-1.661,2.271-3.099,3.421-4.641Zm251.632,350.623c.562-.526,1.124-1.052,1.686-1.577,7.277,2.074,12.981,6.768,18.143,12.002,19.749,20.029,40.084,39.535,56.827,62.314,1.045,1.422,2.5,2.542,5.12,5.155-5.102-24.9-2.951-47.861-.973-70.893,1.804-21.017,1.922-42.026-5.53-62.304-10.139-27.588-26.816-50.734-48.749-69.961-27.656-24.244-60.335-35.707-96.867-39.7-20.514-2.242-34.569,7.535-51.621,17.489,11.684,2.673,22.705,1.973,31.06,9.826-3.188,1.04-6.321,1.618-9.398,1.399-6.491-.461-12.937-1.535-19.428-2.001-11.176-.801-22.402-2.138-33.43,1.287-16.553,5.14-33.545,7.098-50.822,6.973-3.604-.026-7.209-.004-10.814-.004,1.77,2.369,3.601,3.184,5.413,4.038,33.993,16.004,68.092,31.79,101.916,48.145,11.421,5.522,22.684,11.774,30.616,22.284,1.022,1.355,1.4,3.195,2.838,6.628-4.474-2.406-7.035-3.794-9.607-5.164-14.614-7.781-29.069-15.883-43.891-23.244-14.302-7.103-28.838-13.785-43.53-20.044-29.379-12.516-58.536-25.726-88.552-36.513-21.2-7.619-41.75-16.332-61.952-26.103-1.322-.639-2.784-.991-4.181-1.476,8.487,7.77,17.427,14.588,26.72,20.884,34.091,23.095,67.605,46.968,99.875,72.571,23.201,18.408,46.562,36.589,72.075,51.82,5.284,3.154,9.869,7.539,14.545,11.621,1.753,1.53,2.85,3.811,4.516,6.125-1.864,.494-2.508,.901-2.895,.729-2.699-1.194-5.411-2.387-7.996-3.803-23.14-12.673-45.485-26.565-66.455-42.647-37.129-28.473-74.32-56.869-113.579-82.409-1.702-1.107-3.572-1.956-5.363-2.926,6.588,8.932,13.76,16.801,21.153,24.456,7.407,7.67,15.005,15.156,22.573,22.668,7.567,7.511,15.185,14.972,22.81,22.425,7.396,7.229,16.79,12.478,23.828,22.74-3.149-.338-4.386-.169-5.332-.617-25.476-12.063-41.932-35.012-63.257-53.101,0,1.614-.273,2.58,.04,3.283,7.227,16.207,13.809,32.753,21.953,48.49,14.772,28.544,34.961,53.505,54.761,78.604,19.867,25.184,44.605,44.882,72.251,60.947,7.187,4.176,14.888,7.276,23.379,7.792,18.955,1.151,37.312-1.555,54.507-9.717,13.188-6.259,25.971-13.371,39.278-20.282-8.842-8.664-20.21-14.586-26.166-26.924,6.261-.096,10.189,3.272,14.191,6.009,7.329,5.012,14.335,10.496,21.621,15.575,2.084,1.452,4.629,2.989,7.032,3.11,10.466,.525,19.483,4.737,28,10.269,5.956,3.868,11.556,8.282,17.5,12.171,7.264,4.753,15.031,8.25,23.992,8.249,5.138,0,9.282-1.364,11.088-7.247-1.812-3.196-3.358-6.787-5.649-9.815-9.638-12.741-19.052-25.692-29.382-37.859-14.918-17.572-30.558-34.529-45.89-51.749Zm-296.983-188.682c18.239,10.381,37.723,15.077,57.849,17.075,33.16,3.291,64.891-1.128,94.467-17.687,12.292-6.882,22.772-15.906,33.249-25.073,18.231-15.953,39.775-21.135,63.503-19.841,14.16,.772,28.374,1.214,42.547,.936,17.326-.339,32.109-7.316,44.475-19.439,2.96-2.902,5.688-6.176,9.065-8.484,4.823-3.297,9.831-7.071,15.317-8.499,12.837-3.34,26.086-5.065,39.003-8.138,5.938-1.413,11.867-3.817,17.116-6.927,6.079-3.602,5.091-10.765-1.362-13.75-2.389-1.105-5.204-1.502-7.317-2.959-12.562-8.656-26.224-14.811-40.882-18.924-2.91-.816-5.927-1.919-7.802-5.539,5.86-2.335,10.989-1.445,16.143-.065,4.854,1.299,9.725,2.537,14.646,3.816-2.658-7.897-5.418-14.773-7.245-21.888-1.908-7.429-3.201-15.049-4.255-22.656-1.837-13.252-4.211-26.406-10.186-38.441-13.202-26.592-34.795-43.99-62.579-53.129-34.794-11.445-69.896-6.984-104.122,2.482-20.133,5.568-39.325,14.63-58.772,22.534-6.477,2.632-12.433,6.548-18.754,9.946,7.879,40.108,13.437,79.402-3.029,119.145,9.634-5.694,16.163-13.615,26.555-18.004-.399,2.854-.115,4.617-.865,5.53-3.166,3.856-6.354,7.777-10.052,11.098-15.836,14.225-32.269,27.74-45.021,45.145-9.145,12.482-20.157,23.295-34.276,30.382-1.892,.95-3.751,1.967-5.625,2.953,9.974-.747,19.564-2.47,28.832-5.262,18.278-5.505,34.834-14.722,50.817-25.006,15.184-9.769,30.298-19.648,45.595-29.237,11.843-7.424,24.582-12.98,38.106-16.592,7.442-1.987,13.735-1.45,18.692,1.579-3.428,1.295-6.335,2.693-9.397,3.502-22.381,5.913-42.037,17.194-60.875,30.267-12.157,8.437-24.552,16.54-37.016,24.519-39.798,25.478-82.82,35.327-129.728,26.802-8.724-1.585-17.692-1.827-26.548-2.689-.149,.744-.297,1.487-.445,2.23,7.132,2.561,14.227,5.231,21.403,7.665,34.406,11.672,68.644,11.154,102.567-1.891,16.283-6.262,32.328-13.146,48.641-19.329,8.279-3.138,16.855-5.552,25.41-7.876,3.696-1.004,7.819-2.008,12.74,1.716-3.774,2.084-6.366,3.881-9.219,5.032-19.739,7.958-39.77,15.237-59.255,23.768-33.684,14.749-68.529,22.12-105.349,19.223-2.241-.176-4.507-.023-6.761-.023Zm-498.204,234.66c1.418-11.163,1.396-14.827-2.69-23.929-5.689-12.676-11.832-25.158-18.125-37.548-4.269-8.405-7.26-16.927-5.081-26.43,1.518-6.619,.421-12.873-1.492-19.217-3.739-12.396-4.364-24.914-1.687-37.71,1.152-5.508,.87-11.316,1.239-16.988-2.027,2.774-2.381,5.656-2.795,8.53-3.624,25.17-8.673,50.127-8.682,75.782-.003,8.684-2.869,17.444-5.05,26.011-.883,3.469-2.621,7.46-8.872,6.858-.224-2.69-.9-5.471-.57-8.127,.472-3.791,2.108-7.447,2.495-11.237,1.139-11.171,1.454-22.439,2.92-33.561,2.588-19.641,5.759-39.206,8.744-58.795,1.904-12.494,1.929-24.986,.314-37.747-8.674,22.648-21.079,42.221-41.575,55.646q16.203,22.62,14.379,30.01c-6.753-1.432-8.508-7.753-11.879-12.251-3.51-4.683-6.408-9.826-9.784-15.098-11.003,2.376-21.756,4.356-32.328,7.048-27.491,7.001-47.832,24.038-63.643,46.869-9.645,13.927-17.041,29.087-22.713,45.093-4.743,13.384-9.276,26.876-14.793,39.945-8.674,20.551-20.426,39.432-33.75,57.281-7.559,10.126-11.278,21.243-11.379,33.858-.1,12.504,.718,24.832,3.828,36.995,2.718,10.63,4.52,21.367,4.145,32.464-.731,21.61-7.95,41.1-18.544,59.593-1.63,2.845-3.161,5.747-5.174,9.417,15.722-2.523,28.068-9.294,40.904-15.388,14.739-6.998,27.453-16.241,39.094-27.298,4.052-3.848,8.613-7.6,11.334-12.323,7.084-12.295,13.944-24.809,19.689-37.768,12.507-28.212,13.465-56.623-.467-84.906-3.787-7.688-6.99-15.687-10.053-23.699-1.383-3.616-3.783-7.496-.791-12.123,5.733,.814,8.991,4.646,11.205,9.11,4.335,8.74,8.341,17.655,12.168,26.632,9.759,22.892,11.725,46.288,4.088,70.232-1.143,3.584-2.019,7.252-3.018,10.882,.717,.535,1.434,1.07,2.152,1.604,1.224-1.908,2.355-3.885,3.688-5.714,10.112-13.876,20.342-27.666,30.361-41.608,3.523-4.902,8.079-9.577,5.374-16.718-.532-1.403,.537-3.435,.931-5.163,4.207-18.458,2.407-36.45-4.082-54.109-2.552-6.944-5.233-13.864-7.276-20.961-.892-3.097-3.101-6.445-.351-11.297,16.345,23.824,25.44,48.787,24.033,77.336,8.737-11.047,11.692-25.189,22.821-36.53,1.966,13.993-6.68,23.059-9.414,35.222,3.414-3.114,5.653-5.032,7.751-7.093,12.355-12.138,27.529-19.27,43.672-24.705,2.614-.88,5.844-1.902,6.782,1.399,.557,1.959-.781,5.203-2.347,6.829-1.953,2.029-4.874,3.425-7.627,4.336-19.195,6.352-34.151,18.655-47.35,33.423-22.305,24.954-44.152,50.291-63.809,77.428-1.273,1.758-2.276,3.712-3.405,5.575,5.47-2.619,9.767-6.266,14.547-9.101,5.297-3.142,10.849-6.076,16.642-8.09,4.354-1.514,7.916-3.603,11.187-6.737,12.701-12.17,26.592-22.737,42.936-29.551,8.257-3.442,14.52-8.74,19.424-16.169,8.529-12.92,17.672-25.91,31.242-33.549,12.41-6.987,15.843-17.926,18.62-29.989,.959-4.165,1.426-8.443,2.234-13.375-6.034,1.676-10.596,5.436-16.777,2.324,3.247-7.383,8.795-10.352,16.428-11.126Zm235.777-421.958c-3.745-7.649-7.619-15.238-11.207-22.96-7.165-15.42-12.084-31.446-12.924-48.584-1.085-22.169-1.901-44.364-3.646-66.484-1.394-17.672-3.436-35.338-6.222-52.842-3.391-21.304-8.952-42.118-14.777-62.946-7.015-25.082-19.153-46.253-38.163-63.779-5.877-5.418-11.413-11.203-17.178-16.745-6.9-6.633-12.627-14.126-16.798-22.748-4.963-10.259-9.816-20.572-15.238-31.956-1.788,3.259-4.217,5.847-4.593,8.706-1.271,9.648-2.205,19.378-2.551,29.102-.648,18.189,3.276,35.943,6.599,53.644,3.433,18.29,8.232,36.323,12.42,54.472,.958,4.151,1.853,8.314-.109,12.878-5.099-2.369-6.1-6.58-7.078-10.427-4.664-18.34-9.089-36.741-13.571-55.126-.989-4.056-1.866-8.14-3.083-13.474-5.521,18.28-10.028,35.075-15.727,51.456-4.202,12.076-5.753,23.88-2.94,36.418,1.037,4.623,.606,9.575,.946,16.408-3.893-3.615-6.044-5.613-9.17-8.516-.428,10.831-1.205,20.27-1.091,29.698,.266,22.025,4.044,43.538,9.977,64.747,4.471,15.982,8.278,32.332,16.711,46.676,15.281,25.992,29.442,52.793,49.707,75.546,2.745,3.082,5.636,6.341,7.26,10.044,2.83,6.45,8.009,9.966,13.678,13.21,2.312,1.323,4.532,2.843,6.945,3.945,25.822,11.792,51.67,23.526,77.534,35.224,.863,.39,1.972,.235,3.96,.433-13.535-12.256-25.785-24.327-39.063-35.134-17.965-14.62-35.349-29.833-50.646-47.178-11.926-13.523-22.833-27.953-33.99-42.14-2.494-3.171-5.142-6.764-3.564-12.507,1.79,1.646,2.695,2.34,3.436,3.179,10.571,11.988,20.825,24.272,31.734,35.942,24.944,26.685,51.421,51.623,83.418,69.925,2.968,1.698,6.057,3.185,10.369,5.438-1.151-2.191-1.385-3.019-1.908-3.576-22.984-24.499-42.585-51.579-60.602-79.832-12.405-19.452-25.481-38.564-33.872-60.272-1.434-3.711-2.293-7.644-3.608-12.121,8.215,1.978,8.294,1.942,10.121,5.982,12.895,28.518,30.689,53.996,49.258,78.954,7.946,10.68,17.119,20.304,29.247,27.318ZM1437.328,282.105c3.895,5.318,4.644,17.18,3.892,38.843-.462,13.288,.097,26.629,.645,39.928,.549,13.307,1.424,26.611,2.581,39.879,1.147,13.154,2.824,26.262,4.336,39.998,7.66-10.849,14.34-20.89,21.616-30.479,10.421-13.736,22.68-25.806,35.824-36.918,18.231-15.412,24.054-36.014,24.591-58.646,.24-10.131-2.924-19.473-10.175-27.342-2.128,3.419-3.88,6.234-5.632,9.048-.7-.103-1.4-.205-2.101-.308-.886-3.267-2.29-6.495-2.537-9.809-.371-4.996-.065-10.059,.183-15.082,1.292-26.209-.602-51.848-9.193-77.06-7.431-21.809-13.211-44.223-15.009-67.409-.124-1.596-.957-3.137-1.749-5.601-.983,1.993-1.631,2.987-1.988,4.076-9.841,30.081-19.754,60.139-29.407,90.281-2.973,9.285-5.037,18.859-7.897,28.184-1.13,3.683-1.925,8.142-7.072,9.346-3.516-6.008-1.903-11.958-.337-17.474,5.729-20.187,11.737-40.3,17.998-60.33,3.942-12.61,8.522-25.02,12.816-37.52-3.049,1.35-4.956,3.459-7.114,5.267-4.744,3.975-9.219,8.549-14.59,11.393-3.073,1.627-5.189,2.815-6.436,6.148-4.766,12.738-10.219,25.231-14.613,38.09-3.043,8.906-5.646,18.146-6.878,27.445-1.823,13.762-2.174,27.715-3.33,41.572-.349,4.182,.261,8.85-3.5,11.948-3.997-1.015-3.92-3.935-3.948-6.491-.111-10.044,.027-20.091-.056-30.136-.205-24.854,6.679-47.818,17.877-69.792,3.064-6.012,4.773-12.715,7.104-19.101-7.742,12.145-13.701,25.028-20.557,37.415-17.054,30.815-20.024,63.958-17.179,98.177,1.754,21.096,7.91,41.228,13.923,61.337,11.987,40.09,20.168,80.949,24.501,122.51,3.548,34.026,.85,67.416-14.127,98.939-2.104,4.429-3.802,9.051-5.688,13.584,26.037-21.554,36.587-50.088,38.099-81.11-2.588-2.823-4.713-4.65-6.167-6.908-.89-1.382-.85-3.415-1.06-5.176-2.133-17.914-4.566-35.8-6.258-53.756-2.333-24.747-4.598-49.52-5.967-74.333-1.351-24.507-2.708-49.086,.428-73.601,.44-3.437,.305-7.123,4.151-9.024ZM288.298,1647.885c2.706,0,5.258,.294,7.719-.056,6.737-.96,13.469-2.018,20.141-3.349,15.273-3.046,30.776-3.896,45.945-1.004,43.736,8.338,82.346,25.971,108.883,63.856,2.144,3.06,4.384,5.103,8.489,5.297,18.913,.892,37.812,2.885,56.715,2.873,12.581-.007,25.16-2.723,37.74-4.227,.126-.629,.251-1.259,.377-1.888-3.814-2.647-7.506-5.494-11.468-7.896-7.08-4.292-14.42-8.159-21.454-12.523-3.034-1.882-6.647-3.666-7.408-9.129,4.105,1.141,7.557,1.764,10.745,3.045,12.677,5.093,24.769,11.337,35.56,19.794,4.888,3.832,9.717,5.198,15.443,2.038,2.317-1.279,5-1.889,7.334-3.144,18.245-9.806,36.453-19.68,54.648-29.579,1.936-1.053,3.716-2.394,6.232-4.034-3.264-2.277-5.579-4.047-8.039-5.586-54.272-33.949-113.036-56.758-175.58-69.727-16.766-3.477-34.04-4.436-50.965-7.248-5.933-.986-10.971-.227-16.247,2.14-17.548,7.871-35.181,15.551-52.759,23.355-1.611,.715-3.059,1.797-5.426,3.212,6.234,.846,11.209,1.585,16.199,2.189,27.72,3.355,54.931,8.777,80.769,19.798,4.024,1.716,8.425,2.968,10.81,8.978-3.202,.344-5.962,1.245-8.462,.772-4.035-.763-7.973-2.243-11.823-3.749-16.588-6.488-33.561-11.492-51.204-14.206-14.623-2.249-29.256-4.502-43.768-7.35-4.323-.848-7.962-1.052-11.876,1.022-15.422,8.168-30.919,16.194-46.362,24.322-.38,.2-.459,.973-.905,2.003ZM1557.466,312.827c7.131-3.915,12.114-8.145,16.094-14.327,4.097-6.365,9.627-11.927,15.107-17.245,4.218-4.094,9.368-7.218,14.039-10.857,10.176-7.928,18.826-17.291,24.445-28.943,11.01-22.83,16.055-46.96,14.019-72.342-.477-5.947-1.122-12.048-5.486-18.247-2.274,8.831-.569,18.24-9.864,23.983-.846-3.894-1.966-6.729-1.999-9.577-.209-18.056-.199-36.114-.219-54.172-.016-14.191,.238-28.386-.076-42.569-.096-4.339-1.172-8.831-2.688-12.923-2.287-6.171-5.704-7.453-10.861-3.246-4.92,4.014-9.676,8.953-12.619,14.488-3.982,7.488-6.832,15.761-8.958,24.009-2.989,11.597-7.326,22.556-13.471,32.705-5.967,9.856-12.333,19.518-19.169,28.789-10.183,13.81-17.429,28.998-21.097,45.585-1.678,7.586-1.628,15.937-.501,23.669,1.572,10.785,4.849,21.326,7.495,31.947,.457,1.833,1.403,3.543,2.472,6.167,6.471-13.992,6.096-29.229,15.203-41.234,.399,6.422,.801,12.927-.618,19.006-5.173,22.159-10.905,44.188-16.555,66.233-.995,3.882-2.657,7.608,.39,12.266,2.531-4.539,4.933-8.265,6.767-12.251,4.447-9.666,8.99-19.313,12.852-29.219,12.585-32.279,23.641-65.039,30.38-99.131,2.98-15.076,6.369-30.072,9.676-45.082,.638-2.897,1.759-5.688,2.658-8.528l3.222,.994c-4.825,66.038-24.262,128.389-50.639,190.051ZM475.024,630.834c-.298-.223-.597-.447-.895-.67-17.481,14.367-35.354,28.289-52.321,43.239-13.907,12.253-22.832,28.023-25.8,46.499-2.108,13.118-3.189,26.403-4.621,39.625-.204,1.884,.201,3.834,.387,6.721,3.04-3.123,5.241-5.385,8.174-8.398,2.298,12.713-1.103,23.215-3.525,33.837-2.823,12.382-6.769,24.656-8.105,37.202-3.653,34.305-2.407,68.508,5.175,102.35,4.138,18.47,7.906,36.995,15.317,54.558,12.865,30.49,32.828,56.04,55.137,79.992,.416,.447,1.258,.498,3.559,1.341-5.146-8.396-9.354-15.404-13.702-22.325-10.577-16.834-20.356-34.074-25.977-53.29-3.237-11.067-6.206-22.224-8.909-33.433-7.011-29.069-8.605-58.416-4.546-88.116,2.667-19.514,9.274-37.883,15.327-56.429,6.901-21.144,13.046-42.522,13.988-64.838,.431-10.205-.876-20.619-2.615-30.728-1.003-5.828-6.486-6.988-10.802-2.842-2.466,2.369-4.003,5.747-5.788,8.771-1.572,2.662-2.908,5.463-4.348,8.202-.85,.345-1.7,.689-2.549,1.034-.582-1.382-1.654-2.766-1.648-4.145,.015-3.159,.037-6.481,.975-9.446,3.824-12.086,11.4-16.721,24.013-15.777,2.309,.173,5.179-.966,7.067-2.431,7.397-5.738,9.345-13.763,9.487-22.83,.261-16.724,5.052-32.002,16.229-44.888,.648-.747,.887-1.85,1.316-2.788Zm348.541,950.013c-3.233,1.178-6.451,2.402-9.702,3.525-14.242,4.921-28.323,10.422-42.81,14.471-7.826,2.187-16.394,2.86-24.553,2.508-25.888-1.117-46.236-13.227-61.935-33.482-5.257-6.783-10.037-13.937-15.318-20.702-15.511-19.871-34.197-34.392-60.772-35.265-2.366-.078-4.73-.272-7.09-.465-17.172-1.4-34.062-4.247-50.203-10.488-15.406-5.957-28.888-14.657-39.842-27.322-14.071-16.269-21.714-35.774-29.215-55.432-5.454-14.293-8.227-29.041-7.2-44.339,.886-13.208,2.172-26.39,3.25-39.223,.159-.078-.558,.03-.786,.423-19.103,32.984-21.37,67.189-6.503,102.207,10.023,23.609,25.453,43.219,46.011,58.776,19.221,14.545,40.226,26.076,61.81,36.505,18.981,9.172,35.441,21.263,49.035,37.383,4.189,4.968,8.751,9.685,13.558,14.06,31.877,29.012,68.062,43.633,112.132,36.01,28.222-4.882,49.405-21.062,70.132-39.152Zm-86.046,64.463c-7.76-6.047-14.948-11.798-24.738-12.053-3.782-.099-7.581-1.199-11.29-2.158-30.045-7.765-55.39-23.336-76.439-46.074-7.236-7.816-14.69-15.43-22.044-23.136-5.178-5.426-11.429-7.466-19-7.824-46.18-2.184-90.615,6.961-134.497,19.979-2.617,.776-5.091,2.03-8.318,3.34,1.554,.817,2.007,1.249,2.484,1.278,26.136,1.58,51.455,7.448,76.615,14.305,53.226,14.506,103.041,36.562,149.004,67.126,3.711,2.468,6.501,2.248,10.518,.77,11.068-4.075,22.322-7.736,33.693-10.867,7.839-2.159,15.996-3.164,24.011-4.685Zm-95.324-511.14c.684-5.005,1.486-9.254,1.814-13.539,1.525-19.919,7.628-38.784,13.222-57.759,.824-2.794,2.402-5.406,3.871-7.964,14.859-25.868,37.289-40.564,66.657-44.836,18.746-2.727,37.251-6.375,55.324-12.232,5.59-1.812,8.749-4.959,11.017-10.237,4.743-11.039,7.486-22.506,7.644-34.41,.146-11.058-1.579-21.866-9.076-30.826-4.932-5.894-9.16-7.454-15.46-3.994-12.928,7.101-25.918,14.215-38.183,22.373-20.67,13.75-40.876,28.204-61.1,42.61-5.9,4.203-12.503,8.335-16.53,14.079-11.667,16.645-19.622,34.636-11.721,55.63,3.104,8.248,1.18,15.691-3.422,22.717-2.592,3.958-5.882,7.549-7.915,11.76-2.919,6.045-6.108,12.324-7.146,18.829-1.677,10.506,.037,20.595,11.004,27.797Zm754.077-525.003c-2.37,1.517-3.366,2.104-4.31,2.766-17.746,12.441-30.58,28.612-37.655,49.245-5.098,14.867-13.252,27.52-25.757,37.523-16.512,13.207-25.413,31.551-32.241,51.032-5.089,14.52-9.995,29.105-15.119,43.612-6.643,18.812-14.762,36.818-28.909,51.431-.714,.738-1.158,1.736-1.728,2.614,3.177-.472,5.626-1.838,7.96-3.381,10.126-6.694,20.07-13.676,30.362-20.103,11.377-7.105,23.228-8.485,35.199-1.133,8.314,5.106,16.412,4.236,24.11-1.163,5.811-4.076,11.274-8.646,17.022-12.817,5.742-4.167,11.3-8.779,17.552-12.012,12.726-6.581,25.79-8.628,38.493,.549,4.074,2.944,8.169,5.861,12.305,8.716,1.507,1.041,3.165,1.864,5.884,3.443-1.904-8.397-3.502-15.444-5.174-22.816,3.828-1.094,6.865-1.961,9.346-2.67,3.996-8.261,7.731-15.984,11.467-23.707-.626-.414-1.252-.828-1.878-1.241-4.803,4.728-9.562,9.502-14.421,14.172-4.943,4.75-7.395,11.996-14.334,15.038-1.581-3.205-2.381-6.408-4.351-8.518-5.536-5.928-6.173-6.515-1.679-13.49,5.703-8.851,9.151-18.437,11.945-28.491,3.221-11.59,9.298-21.657,18.029-30.137,8.239-8.002,17.158-11.254,28.137-5.852,7.932,3.902,16.176,3.547,24.12,.279,7.372-3.032,14.917-6.054,21.567-10.348,14.41-9.304,31.1-10.526,46.999-14.587,1.694-.433,3.543-.513,5.299-.407,19.484,1.169,38.962,2.428,58.446,3.583,1.4,.083,2.837-.456,4.257-.706-2.697-2.376-5.445-3.045-8.197-3.695-2.955-.698-5.792-1.514-5.961-5.284,5.096-4.832,5.66-13.149,1.212-22.384-1.081,3.602-2.181,6.635-2.892,9.758-2.164,9.503-4.047,11.813-13.884,10.255-9.746-1.544-19.477,.108-29.022-1.317-15.17-2.264-28.494,1.809-41.632,8.959-9.312,5.068-19.176,9.306-29.155,12.915-12.798,4.629-24.675,2.095-34.071-8.043-3.085-3.328-4.738-7.983-7.14-12.196-2.963,1.406-6.952,2.093-8.952,4.461-7.611,9.009-15.506,17.916-19.074,29.647-2.408,7.917-5.821,15.536-8.07,23.491-6.399,22.628-19.878,40.15-38.403,54.014-12.617,9.442-25.981,17.745-41.645,21.153-24.762,5.388-45.815-11.365-42.417-34.705,2.415-16.592,6.804-32.825,16.696-47.214,9.837-14.308,21.824-26.499,34.252-38.347,20.257-19.313,30.469-43.768,37.411-71.889ZM1549.502,82.304c-6.396,17.323-13.17,34.003-18.689,51.089-5.506,17.045-6.872,34.779-6.323,54.156,1.645-2.049,2.426-2.626,2.664-3.377,5.653-17.755,15.796-32.884,26.81-47.697,11.165-15.016,19.668-31.412,24.16-49.937,4.439-18.308,11.465-35.546,29.37-46.249-9.557-7.647-14.695-16.902-13.985-29.055-8.402-.039-15.138,2.441-21.072,7.104-8.22,6.46-15.054,14.09-20.17,23.328-5.756,10.394-14.157,18.202-25.156,22.849-18.075,7.636-26.371,21.857-28.039,40.712-.156,1.763,.423,4.032-.469,5.215-5.112,6.787-3.396,14.365-1.934,21.337,4.058,19.35,8.958,38.524,13.62,57.745,.346,1.425,1.439,2.669,2.509,4.575,.386-1.219,.549-1.5,.554-1.783,.06-3.548,.076-7.097,.143-10.645,.575-30.044,7.161-58.603,21.373-85.204,2.21-4.136,5.061-7.968,7.93-11.7,1.562-2.032,3.575-4.161,6.703-2.463Zm-93.934,399.287c.645-2.149,1.495-4.261,1.904-6.454,4.478-24.016,18.848-39.55,41.193-48.331,8.81-3.462,17.637-6.888,26.362-10.556,26.662-11.21,49.711-27.149,67.528-50.394,20.461-26.693,36.497-56.039,52.203-85.574,3.661-6.884,5.367-14.808,7.972-22.254-.541-.272-1.081-.544-1.622-.816-4.909,6.089-9.602,12.368-14.787,18.212-5.3,5.974-11.002,11.599-16.672,17.233-5.881,5.844-11.866,11.589-17.934,17.239-5.612,5.225-9.68,12.398-18.33,15.736-1.159-7.8,4.197-11.82,6.55-17.681-2.263,.405-4.122,.33-5.567,1.067-6.515,3.324-13.527,6.09-19.211,10.529-9.072,7.086-17.278,15.291-25.733,23.148-1.454,1.351-2.836,3.176-3.39,5.038-4.78,16.059-15.767,27.47-27.767,38.323-7.453,6.741-14.338,14.115-21.39,21.292-1.223,1.245-2.005,2.922-2.991,4.399,5.638-1.864,10.349-4.306,14.8-7.154,20.772-13.288,40.171-28.291,57.229-46.199,3.736-3.922,7.235-8.329,15.28-9.941-2.278,4.35-3.299,7.378-5.186,9.704-5.772,7.114-11.317,14.555-17.962,20.79-17.523,16.442-36.147,31.524-57.554,42.847-5.481,2.899-10.263,7.266-15.917,9.659-11.151,4.72-15.207,14.048-17.987,24.592-.679,2.574-1.206,5.232-2.25,7.658-2.632,6.119-.369,11.895,1.228,17.886Zm-286.497,759.67c-.875-.044-1.769-.229-2.622-.11-18.285,2.549-36.541,2.578-54.905,.441-6.669-.776-13.624-.245-20.326,.631-16.163,2.113-29.18,10.357-41.11,21.211-30.475,27.726-66.738,40.876-107.779,41.033-33.772,.129-65.563-7.614-95.551-23.437-19.874-10.487-40.323-19.887-60.539-29.722-2.523-1.228-5.198-2.144-7.803-3.204,2.163,3.781,5.002,6.293,8.145,8.34,17.108,11.145,34.008,22.646,51.511,33.137,27.478,16.47,57.253,26.825,89.112,30.878,44.352,5.642,86.179-1.813,124.594-25.128,11.346-6.886,21.981-15.028,32.517-23.146,13.149-10.131,27.19-17.738,44.042-19.308,7.067-.658,14.101-1.701,21.131-2.706,7.28-1.041,14.235-2.983,19.582-8.912ZM1640.406,36.342c-6.568,6.755-11.614,13.338-6.993,23.033,.964,2.024,.914,4.645,.923,6.993,.064,16.263,.17,32.528-.052,48.789-.116,8.437,.55,16.308,5.834,23.55,6.172,8.46,9.705,18.096,11.129,28.66,2.135,15.835,.584,31.371-2.825,46.753-5.374,24.25-15.434,46.019-35.129,62.231-4.57,3.762-9.481,7.107-14.072,10.844-3.322,2.704-6.377,5.737-10.805,9.764,7.726-.012,12.953-.897,17.466-4.918,17.379-15.481,32.716-32.668,43.996-53.137,6.997-12.697,13.669-25.585,20.058-38.598,2.716-5.532,4.793-11.481,6.367-17.45,4.906-18.61,4.931-37.49,2.169-56.432-1.083-7.424-3.224-14.463-8.184-20.323-5.758-6.803-7.192-14.756-6.258-23.314,.449-4.114,1.237-8.19,1.72-12.301,1.174-10,2.677-20.023,.279-30.04-1.936-8.084-5.095-10.29-13.797-10.003q-3.521,7.99-11.827,5.899Zm-442.069,701.55c6.697,14.965,9.852,30.568,21.756,42.241,4.452-7.256,4.572-15.985,12.173-22.262,.355,4.991,.615,8.656,.884,12.448,1.073-.118,2.067,.04,2.762-.343,13.727-7.559,27.26-15.487,41.171-22.686,10.122-5.238,13.293-13.473,12.647-24.045-.144-2.364-.03-4.765-.397-7.091-1.663-10.546-5.219-20.248-12.09-28.258-8.065,7.792-15.076,15.517-23.092,21.998-6.05,4.891-8.763,10.586-9.297,17.952-.191,2.631-.635,5.365-1.626,7.78-.885,2.156-2.683,3.937-5.439,7.783-1.647-4.809-3.076-7.349-3.282-9.985-.273-3.495,.501-7.062,.642-10.605,.068-1.708,.351-3.961-.559-5.055-3.478-4.179-7.401-7.987-12.195-13.024-2.075,16.506-13.261,24.376-24.059,33.152Zm493.49-78.895c6.024-28.266,11.234-56.325,34.808-76.438-21.015-6.329-27.963-4.041-39.516,12.196-11.342,15.94-17.762,33.967-22.43,52.727-1.531,6.152-2.736,12.385-4.369,19.857,12-1.818,22.369-3.288,31.508-8.342Zm-481.279,166.018c2.714,.127,3.907,.379,5.034,.205,11.061-1.707,22.06-4.066,33.182-5.037,7.377-.644,11.086-4.235,13.444-10.542,6.09-16.289,12.283-32.54,18.37-48.831,.413-1.104,.291-2.408,.497-4.375-6.345,3.419-11.724,6.439-17.214,9.241-5.512,2.813-11.111,5.46-16.715,8.087-5.595,2.624-12.613,3.862-16.492,8.041-4.115,4.434-5.182,11.652-7.752,17.58-1.64,3.784-3.606,7.427-5.402,11.144-2.155,4.458-4.286,8.928-6.952,14.486ZM350.077,1602.67c2.588-.683,3.489-.797,4.285-1.148,20.223-8.912,40.447-17.823,60.626-26.835,1.505-.672,2.919-1.903,3.951-3.21,3.284-4.157,6.424-8.432,9.513-12.737,3.131-4.362,6.135-8.815,9.195-13.228-.435-.645-.87-1.291-1.306-1.936-15.438,2.345-30.886,4.622-46.308,7.07-5.762,.914-10.321,3.734-13.588,8.857-7.622,11.953-15.555,23.708-23.238,35.623-1.197,1.857-1.743,4.133-3.13,7.543Zm114.702-150.041c-13.054,25.462-25.001,49.866-26.03,79.635,8.754-3.328,16.251-5.907,23.467-9.119,1.721-.766,3.144-3.506,3.606-5.582,3.052-13.71,8.409-26.415,16-38.341-5.42-8.457-10.82-16.884-17.043-26.593ZM1651.692,668.314c1.242-6.751,2.161-12.57,3.412-18.317,1.191-5.472,2.552-10.921,4.159-16.284,1.691-5.645,3.534-11.268,5.733-16.731,2.089-5.189,4.864-10.099,7.076-15.244,2.167-5.041,6.793-8.919,8.014-16.007-17.874,8.183-30.557,20.195-40.897,34.915-.945,1.346-1.233,3.313-1.384,5.031-1.232,14.032-2.359,28.074-3.561,42.637h17.448Zm-444.814,163.59c-1.66,2.628-3.382,5.301-5.051,8.007-4.022,6.523-7.054,13.997-12.26,19.368-7.152,7.379-5.851,16.351-9.184,26.201,29.193-11.94,49.161-31.741,68.375-55.107-14.925,.841-27.908,5.484-41.881,1.531Zm548.256-241.951c-4.367-1.668-7.833-3.496-11.516-4.214-2.285-.446-5.7-.043-7.224,1.42-6.348,6.098-13.203,12.066-17.969,19.331-9.437,14.385-12.761,31.357-18.641,48.736,3.357-1.388,5.524-2.05,7.463-3.126,8.223-4.562,16.379-9.247,24.021-13.581,1.222-11.544-1.406-13.023,23.865-48.566ZM435.826,1565.197c1.257,.319,1.851,.681,2.316,.557,17.105-4.595,34.213-9.179,51.272-13.94,2.162-.604,4.347-1.84,6.025-3.338,6.615-5.905,13.064-11.997,19.499-18.099,1.596-1.513,2.908-3.326,5.714-6.584-10.428,1.243-18.958,1.627-27.189,3.4-10.521,2.266-20.915,5.309-31.129,8.719-4.278,1.428-8.938,3.855-11.696,7.237-5.524,6.771-9.858,14.512-14.811,22.048Zm466.316,27.752c-.157-.732-.315-1.463-.472-2.195-19.863-2.485-39.726-4.969-60.279-7.541-7.584,6.412-15.827,13.381-24.454,20.675,9.06,4.227,17.477,8.154,26.209,12.229,18.165-11.119,38.082-18.389,58.996-23.168Zm-178.198-655.484c6.909-4.084,12.103-7.407,14.593-13.957,1.458-3.834,3.778-7.335,5.639-11.021,9.465-18.747,11.446-39.022,11.923-59.919-4.763,4.888-8.916,10.082-12.518,15.633-5.444,8.388-10.55,16.999-15.684,25.584-.871,1.456-1.494,3.223-1.671,4.905-.865,8.21-1.664,16.431-2.23,24.666-.293,4.259-.051,8.556-.051,14.109Zm16.83,697.529c2.849,1.759,4.993,2.773,6.768,4.237,5.471,4.511,11.522,5.217,18.254,3.699,11.512-2.597,23.171-4.583,34.611-7.449,11.164-2.796,21.457-7.795,32.086-14.721-8.583-4.083-16.221-7.716-22.669-10.783-11.596,5.748-21.786,11.958-32.783,15.929-11.276,4.072-23.343,5.955-36.267,9.088Zm-479.724,9.139c3.32,2.075,6.265,2.502,9.435,.79,2.599-1.404,5.212-2.781,7.81-4.186,18.958-10.253,37.91-20.519,56.877-30.756,2.274-1.227,4.627-2.31,6.349-3.164-1.546-18.17,13.452-28.325,19.218-43.301-15.159,8.583-24.806,16.874-36.804,34.029-7.895,11.288-17.446,19.532-30.304,24.722-12.094,4.882-22.508,12.799-32.581,21.867ZM1503.668,789.873c12.373-17.036,24.065-33.134,36.483-50.231-9.036-.647-16.633-1.192-24.065-1.724-11.899,16.549-23.447,32.419-34.287,50.919,8.386,.398,15.061,.714,21.869,1.037Zm-30.097,6.847c2.986,12.332,5.453,23.208,8.385,33.957,.494,1.81,2.798,4.076,4.596,4.422,10.048,1.935,20.197,3.344,32.485,5.274-8.127-15.25-15.137-28.404-22.103-41.476-7.521-.701-14.487-1.35-23.363-2.177Zm-927.127,455.863c27.748-17.193,33.606-44.803,35.766-74.369-6.641-3.402-12.522-6.253-20.122-5.92,5.395,19.246,2.401,36.882-5.357,54.121-3.842,8.537-6.884,17.434-10.287,26.168Zm152.42,686.78c-30.719-16.325-53.639-39.842-79.636-60.801,4.648,11.645,8.878,22.521,13.395,33.278,.714,1.7,2.527,3.151,4.16,4.216,7.403,4.83,15.049,9.294,22.373,14.236,11.49,7.753,23.956,11.061,39.708,9.071Zm501.241-1115.532c5.83-11.631,11.446-22.837,16.943-33.805-13.653-11.222-19.3-26.213-26.495-40.673-1.501,4.437-2.45,8.677-2.209,12.849,.853,14.735,2.682,29.435,2.974,44.171,.141,7.106,1.38,12.652,8.786,17.458Zm369.03-37.192c-10.38,3.546-20.096,6.866-30.679,10.481,8.412,10.004,16.318,19.407,24.544,29.19,11.471-6.95,18.217-16.658,24.477-27.755-6.452-4.191-12.333-8.013-18.342-11.916Zm-61.623,12.52c4.789,13.986,15.827,24.344,17.846,38.758,11.441-.21,20.676-2.75,29.072-8.123-4.653-5.736-9.254-11.443-13.894-17.117-3.909-4.78-6.99-11.426-12.045-13.75-5.098-2.344-12.176-.392-18.386-.294-.577,.009-1.151,.225-2.593,.526Zm-56.065-13.604c5.96,.493,10.154,.439,14.163,1.276,4.606,.961,6.997-.985,9.377-4.577,8.501-12.829,17.294-25.464,25.922-38.21,.713-1.054,1.015-2.386,1.993-4.771-4.895,.964-8.602,1.742-12.328,2.419-10.009,1.818-17.779,5.967-22.434,16.053-4.283,9.281-10.499,17.67-16.693,27.811Zm98.578-44.13c-12.431,15.59-23.322,31.156-33.565,47.591,7.221-.082,13.876-.949,20.513-1.939,2.779-.414,4.422-1.94,5.754-4.698,2.554-5.286,5.775-10.27,8.953-15.229,4.252-6.636,8.727-13.128,13.678-20.539-5.402-1.827-10.034-3.393-15.334-5.186Zm-23.23-180.255c-8.828,2.646-16.004,7.605-22.668,13.446-.615,.539-1.149,1.458-1.246,2.257-1.328,11.037-1.056,22.018,.699,34.226,8.749-4.715,16.401-8.838,23.215-12.51v-37.419Zm-221.992,45.601c-2.372,6.594-4.327,11.777-6.062,17.033-.429,1.3-.72,3.188-.097,4.208,6.088,9.964,10.64,21.658,25.423,23.4,.406-5.246,.979-10.439,1.105-15.644,.038-1.562-.878-3.374-1.862-4.695-5.746-7.717-11.642-15.323-18.507-24.301ZM476.093,1517.923c14.786-2.217,27.437-4.114,41.028-6.152-9.922-8.593-19.192-16.621-29.407-25.469-3.906,10.628-7.534,20.501-11.62,31.621ZM1624.275,41.48c2.213-3.115,4.097-6.026,6.248-8.725,2.345-2.942,4.937-5.687,7.279-8.357-9.506-17.12-21.327-18.775-32.524-4.858,2.613,10.251,12.027,14.645,18.997,21.94ZM567.764,1541.018c-10.252-5.759-18.813-10.864-27.688-15.345-2.203-1.112-6.514-1.392-7.993-.03-7.013,6.453-13.382,13.606-20.584,21.143,18.889-1.936,36.67-3.759,56.265-5.768Zm795.111-933.049c-2.263-2.546-4.445-4.999-6.881-7.74-3.212,4.108-3.362,9.647-10.298,10.239-.386-3.129-.833-6.117-1.11-9.122-.676-7.339-1.19-14.694-1.976-22.02-.146-1.358-1.261-2.611-2.669-5.354-1.082,21.352-5.158,40.711-4.195,62.035,9.491-9.81,17.825-18.423,27.129-28.04Zm-188.034,291.129c-3.161,5.486-7.193,12.481-11.224,19.476,10.88-4.405,21.902-6.736,33.223-8.093,1.431-.171,3.305-2.485,3.732-4.128,1.53-5.891,2.527-11.92,3.7-17.774-9.557,3.416-18.805,6.722-29.432,10.52Zm290.122-103.685c-6.721-.647-13.358-1.286-20.601-1.983,2.301,8.403,4.343,16.027,6.518,23.611,.297,1.036,1.055,2.215,1.946,2.762,5.883,3.611,11.477,7.897,19.27,9.439-2.462-11.674-4.749-22.52-7.134-33.829Zm91.557-243.131c-6.918,1.707-12.933,3.192-18.879,4.659-.626,12.098-1.196,23.133-1.848,35.742,6.822-5.731,12.93-10.699,18.798-15.935,1.127-1.006,1.79-3.052,1.844-4.647,.21-6.131,.085-12.273,.085-19.819Zm-269.948,129.442c4.187-6.088,7.763-11.46,11.517-16.705,5.29-7.39,5.419-8.695,.455-16.466-1.71-2.677-3.631-5.218-6.152-8.814-6.05,8.655-11.538,16.508-17.157,24.547,3.895,5.991,7.407,11.393,11.337,17.438Zm-37.454,21.384c8.372-9.093,15.292-16.608,22.242-24.155-4.539-8.405-8.84-16.371-13.149-24.337-4.113,8.206-8.323,29.871-9.093,48.493Zm38.355-71.232c-3.915-4.737-7.744-9.37-12.951-15.67-2.453,3.352-5.294,5.526-5.691,8.08-1.55,9.974-3.397,20.157,2.374,30.975,5.687-8.175,10.809-15.538,16.268-23.386Zm46.581,17.402c-.506,8.736-2.944,18.67-1.468,28.709,.681,.175,1.363,.35,2.045,.526,7.959-16.659,15.917-33.318,23.802-49.824-7.826,6.609-15.698,13.258-24.379,20.589Zm35.264,57.284c-6.025,1.282-10.939,3.488-15.616,3.066-8.227-.742-12.428,3.53-16.128,9.59-2.936,4.808-7.194,8.92-8.987,16.277,15.501-8.208,30.522-13.948,40.731-28.933Zm-42.994-86.56c2.16-14.045,3.961-25.754,6.019-39.135-7.883,6.417-14.379,11.705-21.552,17.544,5.174,7.191,9.706,13.491,15.533,21.591Zm247.513,130.001c-3.396,5.062-6.687,9.87-9.873,14.747-3.271,5.007-6.439,10.081-9.652,15.126,.411,.476,.823,.951,1.234,1.427,4.841-1.846,9.704-3.637,14.506-5.581,1.015-.411,2.15-1.192,2.644-2.116,3.556-6.649,6.961-13.379,10.616-20.475-3.41-1.126-6.132-2.024-9.475-3.128Zm-80.232-162.95c-14.598,12.152-16.668,23.056-7.748,36.432,2.699-2.27,5.371-4.519,7.748-6.518v-29.914Zm56.812,24.735c-7.274-1.564-12.666-2.755-18.076-3.858-1.084-.221-2.438-.518-3.326-.083-7.286,3.575-14.492,7.314-22.693,11.5,17.074,7.724,29.66-.451,44.095-7.559Zm-83.653-8.114c3.415-5.236,6.104-9.358,8.626-13.225-2.632-6.923-5.058-13.304-8.181-21.519-4.125,7.745-7.482,14.051-10.778,20.24,3.539,4.968,6.581,9.238,10.333,14.504Zm274.263,50.283c-.204-.727-.408-1.455-.612-2.182-3.567-.412-7.705-2.183-10.588-.97-7.47,3.143-14.388,7.599-22.402,12.014,4.146,3.254,7.526,5.906,11.575,9.083,7.668-6.247,14.848-12.096,22.028-17.945Zm-42.394,13.041c-9.131,2.706-18.586,5.508-29.278,8.676,2.715,2.214,4.801,5.377,6.964,5.431,10.547,.261,20.817-1.751,31.637-5.362-3.667-3.439-6.419-6.021-9.323-8.745Zm-382.813-6.89c-1.383,13.602-2.678,26.345-4.19,41.21,3.725-4.967,7.943-8.246,8.819-12.255,1.743-7.978,1.648-16.358,2.334-24.837-2.362-1.397-4.564-2.699-6.963-4.118Zm428.2-31.98c3.742-2.854,7.322-5.96,11.27-8.492,4.177-2.679,6.764-5.628,7.559-11.007,.631-4.27,3.86-8.156,6.065-12.467-1.84-.775-3.395-1.429-5.107-2.15-7.527,11.013-15.89,20.928-19.786,34.116Zm-512.658,47.156c-9.179,16.485-7.84,18.89,5.462,29.17,6.401-10.93,1.453-19.901-5.462-29.17Zm274.046-134.399c-4.988,2.758-9.749,5.39-14.695,8.124,1.612,5.649,3.033,10.632,4.471,15.671,13.333-5.355,12.935-9.862,10.223-23.796Zm-32.514,22.23c3.094,6.372,5.939,12.234,9.175,18.899,2.762-3.371,4.757-5.805,6.499-7.93-1.966-6.742-3.722-12.76-5.749-19.708-3.868,3.406-6.882,6.059-9.926,8.739Zm94.984,28.566c-12.597-4.763-19.362,1.824-26.322,8.654,5.878,1.494,11.244,2.858,17.783,4.52,2.344-3.616,5.285-8.154,8.539-13.174Zm-187.264,83.841c-.516-.23-1.031-.459-1.547-.689-7.313,7.717-14.627,15.435-21.941,23.152,.25,.378,.499,.756,.749,1.134,5.937-1.447,11.875-2.893,18.803-4.581,1.264-6.107,2.599-12.561,3.935-19.016Zm-81.814,29.551c3.969-10.987,5.702-20.186,5.1-31.483-4.756,6.292-8.429,11.15-12.102,16.01,2.12,4.685,4.146,9.162,7.002,15.473Zm174.129-88.624c-5.312,8.583-6.771,17.536-7.161,28.744,5.313-5.543,9.46-9.87,13.131-13.7-2.17-5.47-3.946-9.946-5.969-15.045Zm129.032,158.484c-.387-.284-.774-.569-1.162-.853-7.041,2.855-14.082,5.709-22.273,9.031,5.129,2.745,9.159,4.903,13.562,7.26,3.585-5.607,6.729-10.523,9.873-15.438Zm-147.034-173.553c-4.895,11.033-4.059,15.78,3.731,20.466,1.184-3.015,2.339-5.957,3.483-8.871-2.49-4.001-4.791-7.701-7.214-11.595Zm130.309,167.21c.427,.417,.853,.834,1.28,1.25,6.377-2.837,12.755-5.674,20.847-9.275-6.594-1.714-10.98-2.855-15.552-4.044-2.429,4.458-4.502,8.263-6.576,12.068Zm-316.669-157.437c-3.079-2.893-4.581-6.557-8.936-7.555-1.192,6.157-3.126,11.775-2.326,19.431,4.434-4.675,7.746-8.168,11.262-11.876Zm-25.839,62.777c1.863-7.672,3.446-14.188,5.029-20.704-.472-.23-.944-.46-1.416-.69-3.533,4.183-7.065,8.366-10.813,12.804,2.475,2.952,4.479,5.344,7.2,8.59Zm-8.311-42.74c-.727,7.02-1.25,12.07-1.839,17.76,4.186-3.462,7.452-6.162,11.07-9.154-2.772-2.585-5.093-4.749-9.23-8.606Zm-45.345,196.523q-5.689,8.219-2.867,18.618c2.986-4.861,5.501-8.955,8.462-13.776-1.995-1.726-3.527-3.052-5.595-4.842Zm326.395-283.566c.596,.219,1.193,.438,1.789,.657,3.544-4.535,7.088-9.07,10.632-13.605-.457-.475-.914-.951-1.371-1.426-3.753,2.027-7.506,4.053-11.051,5.968v8.407Zm244.379,84.08c-5.567,4.345-11.134,8.69-17.687,13.805q9.95,.758,17.687-13.805Zm-192.817-64.875c2.955-4.848,5.91-9.696,9.162-15.03-9.266,.456-11.165,3.244-9.162,15.03Zm-320.834,66.621c.623-6.32,1.093-11.083,1.562-15.845l-1.143-.623c-2.399,3.335-4.798,6.67-7.326,10.183,2.323,2.115,3.993,3.634,6.906,6.286Zm399.923,48.832c5.332,3.996,10.057,2.812,14.937,2.48-3.051-6.301-4.032-6.486-14.937-2.48Zm-141.386-50.217c-2.723-1.543-4.945-2.801-7.406-4.195-2.188,2.085-4.045,3.854-6.637,6.325,5.396,.787,9.85,3.447,14.044-2.13Zm273.408-28.333c-1.736,2.829-3.087,5.029-5.214,8.495,5.957-1.86,10.243-3.199,15.827-4.942-4.112-1.377-6.851-2.294-10.613-3.553Zm-235.71-72.549c-5.037,4.114-7.466,7.768-9.745,12.312,7.357-.519,7.615-5.654,9.745-12.312Zm28.642,46.626c-1.443,1.576-2.886,3.153-4.698,5.133q5.026-.058,4.698-5.133Z"/><path d="M1129.426,860.012c3.002,5.876,2.145,10.7-1.033,15.205-.662,.939-3.095,1.847-3.605,1.427-1.107-.913-2.374-2.966-2.029-4.07,1.33-4.264,2.708-8.658,6.666-12.562Z"/><path d="M859.67,797.484c-.565,4.399-.573,7.85-1.621,10.949-.42,1.24-3.118,2.241-4.804,2.279-.748,.017-2.429-2.807-2.174-4.024,.787-3.757,1.104-8.303,8.599-9.204Z"/><path d="M879.919,769.936c-1.988,1.782-3.241,3.722-4.246,3.601-1.288-.155-3.165-1.863-3.33-3.097-.167-1.247,1.449-2.732,2.284-4.112,1.501,1.023,3.001,2.046,5.292,3.608Z"/><path d="M1098.036,906.557c-2.757,1.195-4.042,2.068-5.403,2.208-.677,.069-2.239-1.513-2.112-1.821,.495-1.208,1.359-2.401,2.403-3.17,.331-.244,1.648,.852,5.112,2.783Z"/><path d="M848.49,1474.363c4.87,4.972,5.807,9.674,4.878,14.684-.243,1.312-2.12,3.108-3.369,3.212-1.124,.094-2.933-1.588-3.541-2.903-2.24-4.842-1.144-9.39,2.032-14.993Z"/><path d="M730.171,1365.291c-6.55-.985-8.235-4.629-7.414-16.03,7.022,4.122,9.027,8.457,7.414,16.03Z"/><path d="M840.848,1519.126c-.801,5.72-1.065,9.632-2.042,13.356-.293,1.119-2.57,1.718-3.938,2.556-.757-1.396-2.226-2.836-2.142-4.179,.281-4.502,2.685-7.879,8.121-11.733Z"/><path d="M233.181,1832.132c4.421-6.638,9.541-7.51,17.767-3.487-5.384,3.516-10.541,6.143-17.767,3.487Z"/><path d="M227.813,1820.075c-5.122,1.488-8.648,4.54-12.291-.869,3.823-3.4,7.105-1.853,12.291,.869Z"/><path d="M657.623,773.156c3.129,5.179,1.676,9.454,.748,13.577-.234,1.039-2.454,2.661-2.946,2.411-1.295-.658-2.989-2.182-3.014-3.391-.089-4.424,1.347-8.472,5.212-12.597Z"/><path d="M226.866,1058.735c1.827-4.185,5.642-4.191,9.047-3.669,20.39,3.129,40.755,6.433,61.09,9.907,2.598,.444,4.969,2.221,8.096,3.685-3.967,4.985-8.262,3.891-12.083,3.365-19.868-2.737-39.705-5.702-59.554-8.575-2.999-.434-5.855-1.017-6.596-4.713Z"/><path d="M319.994,960.154c-2.151,.24-4.359,.923-6.442,.651-16.622-2.176-40.531-8.557-44.949-12.173,9.364-5.492,18.565-1.542,27.381-.232,8.641,1.284,18.008,1.873,24.479,8.909-.156,.949-.313,1.897-.469,2.846Z"/><path d="M880.42,1041.436c.655-13.458,5.987-22.733,12.437-32.053,5.002,3.565,2.596,7.188,1.778,10.243-2.115,7.904-4.316,15.916-14.216,21.81Z"/><path d="M1115.648,1426.791c7.913-1.557,12.094,1.601,14.484,10.939-8.523-1.007-13.399-4.689-14.484-10.939Z"/><path d="M1065.131,1551.994c-8.072,.34-11.485-2.203-13.477-9.378,8.552,.465,11.491,2.42,13.477,9.378Z"/><path d="M1160.874,1140.822c7.339-6.014,17.071-6.071,25.119-.578-7.787,5.441-18.018,5.858-25.119,.578Z"/><path d="M309.219,1478.729c1.253,9.71-1.804,17.244-5.928,24.489-1.358,2.386-3.131,4.349-6.324,2.897-.756-10.983,4.039-22.516,12.252-27.386Z"/><path d="M142.544,1637.77c-.544,3.011-.676,5.829-1.675,8.295-.43,1.063-3.052,2.267-3.967,1.849-1.179-.539-2.491-2.804-2.254-4.038,.665-3.456,2.279-6.55,7.895-6.106Z"/><path d="M136.595,1615.467c-.462,3.097-.501,6.356-1.59,9.214-.443,1.163-3.167,1.457-4.853,2.146-.438-1.539-1.714-3.568-1.155-4.524,1.637-2.799,4.005-5.171,6.087-7.71,.504,.291,1.008,.583,1.511,.874Z"/><path d="M486.106,887.76c4.776,2.852,5.734,6.96,6.307,10.999,.192,1.352-1.35,2.95-2.099,4.436-1.422-.757-3.44-1.152-4.157-2.336-2.379-3.926-3.118-8.141-.051-13.099Z"/><path d="M1472.229,253.62c1.025,24.287,.272,48.601,0,72.903-.017,1.468-1.466,2.92-2.428,4.713-5.507-2.351-5.734-7.064-5.735-11.216-.004-13.538,.27-27.084,.834-40.611,.28-6.716,1.259-13.421,2.273-20.078,.33-2.164,1.775-4.158,2.711-6.229,.781,.173,1.563,.345,2.345,.518Z"/><path d="M1411.44,310.637c6.037,6.091,9.901,21.176,7.551,26.839-1.09,2.626-4.563,3.312-5.366,.851-2.852-8.736-5.093-17.653-2.184-27.69Z"/><path d="M1470.059,351.71c1.318,4.447,2.378,7.04,2.727,9.726,.124,.952-1.587,3.08-2.281,3.005-1.434-.154-3.383-1.106-3.987-2.302-1.616-3.198-.431-6.08,3.541-10.429Z"/><path d="M520.838,1660.723c-8.389,4.923-18.193,1.978-26.245-7.02,9.611,.312,17.66,1.263,26.245,7.02Z"/><path d="M1571.308,55.071c-1.563,1.797-3.991,4.778-6.731,7.437-.265,.257-3.194-1.207-3.62-2.346-1.024-2.736,2.514-8.588,5.553-10.055,2.418-1.167,4.726,.293,4.798,4.964Z"/></g></g></g></svg>